<svg xmlns="http://www.w3.org/2000/svg" width="746.19" height="746.68" viewBox="0 0 746.19 746.68">
  <defs>
    <style>
      .cls-1 {
        fill: #d1cfd1;
      }

      .cls-2, .cls-5 {
        fill: #fff;
      }

      .cls-2 {
        opacity: 0.5;
      }

      .cls-3, .cls-7 {
        fill: none;
        stroke-miterlimit: 10;
      }

      .cls-3 {
        stroke: #fff;
        stroke-width: 2px;
      }

      .cls-4 {
        fill: #040505;
      }

      .cls-6 {
        fill: #1d1d1b;
      }

      .cls-7 {
        stroke: #000;
      }
    </style>
  </defs>
  <g id="background">
    <g>
      <path class="cls-1" d="M745.66,371c.05,3.47.44,2.22.53,2.74C746,368,745.56,371.16,745.66,371Z"/>
      <polygon class="cls-1" points="739.99 314.23 740.33 315.2 738.44 306.99 739.99 314.23"/>
      <path class="cls-1" d="M727.82,262.34a120,120,0,0,0,3.28,12.32l1.19,3.94.61,2c.16.67.33,1.34.5,2,.64,2.68,1.25,5.28,1.72,7.61l.2,1.56,1.52,4.06c-.68-2.81-1.42-5.83-2.16-8.9s-1.45-6.2-2.41-9.16C730.48,271.83,728.9,266.26,727.82,262.34Z"/>
      <path class="cls-1" d="M719.64,235c.39,1.74-2.49-5.66,2.36,6.23l-.38-1.15Z"/>
      <path class="cls-1" d="M721.62,240.09c2.09,5.24-1.13-3.52,0,0Z"/>
      <path class="cls-1" d="M711.32,216.18l3.29,6.66c-.49-1.48-3.18-7.52-2.06-5.33C709.28,210.61,709.78,212.12,711.32,216.18Z"/>
      <path class="cls-1" d="M707.86,210l.93,1.69c.29.57.56,1.15.84,1.73A13.69,13.69,0,0,0,707.86,210Z"/>
      <path class="cls-1" d="M713.19,220.78l-3.56-7.33a8.56,8.56,0,0,0,1.62,3.37C710.78,216.3,711.63,217.69,713.19,220.78Z"/>
      <path class="cls-1" d="M715,225c.39,1,.82,2,1.19,2.9s.61,1.7.75,2.14.14.56-.08.14-.61-1.41-1.46-3.07c.77,1.59,1.29,3,1.79,4.19l1.21,2.84c.63,1.45.93,2,.89,1.74a31.44,31.44,0,0,0-1.1-3.2C717.49,230.86,716.54,228.24,715,225Z"/>
      <path class="cls-1" d="M726.25,260c.52,1.77,1.07,3.53,1.47,5.34l1.54,4.54c-.39-1.14-1.07-3.72-1.67-6A21.91,21.91,0,0,0,726.25,260Z"/>
      <path class="cls-1" d="M689.56,175.36c-.38-.31,1,2.32,1.14,2.89,1.07,1.49,2,3.05,3,4.61C692.43,180.31,689.56,175.8,689.56,175.36Z"/>
      <path class="cls-1" d="M690.7,178.25l-4.64-6.77C690,177.66,690.81,178.72,690.7,178.25Z"/>
      <polygon class="cls-1" points="706.55 209.21 708.21 212.14 709.72 215.14 712.74 221.15 709.18 213.96 708.29 212.16 707.31 210.41 705.36 206.9 706.55 209.21"/>
      <path class="cls-1" d="M671.89,149.45c1,1.16,2,2.38,3,3.57l-2.62-3.22-2.77-3.11Z"/>
      <path class="cls-1" d="M658.86,133.22c2.48,2.42-2.72-3.89-.2-1.25-3.76-4.23-7-7.78-10.15-10.83C651.71,124.47,654.85,128.27,658.86,133.22Z"/>
      <path class="cls-1" d="M643.23,116.08c1.64,1.62,3.38,3.27,5.28,5.06C646.76,119.41,645,117.73,643.23,116.08Z"/>
      <path class="cls-1" d="M678.33,159.85a42.21,42.21,0,0,0-3.39-5.51l1.53,2.88Z"/>
      <path class="cls-1" d="M676.52,157.32l0-.1-4-5.69Z"/>
      <path class="cls-1" d="M678.8,160.52l-.47-.67A2.61,2.61,0,0,0,678.8,160.52Z"/>
      <path class="cls-1" d="M696.82,190.09c-2.6-4.06-7.81-12.6-3.3-4C695.49,188.91,692.9,184,696.82,190.09Z"/>
      <path class="cls-1" d="M680.68,164.08c.85,1.17,1.59,2.43,2.36,3.65l2.31,3.69c0-.21-.71-1.62.68.32l-2.65-3.85C682.49,166.61,681.65,165.3,680.68,164.08Z"/>
      <polygon class="cls-1" points="678.1 160.69 680.68 164.08 678.84 161.43 678.1 160.69"/>
      <path class="cls-1" d="M653,127.36c-1.3-1.36-2.62-2.81-4-4.36s-3-3.08-4.58-4.75L647,121c.85.92,1.73,1.83,2.53,2.81l4.87,5.67C654.93,129.92,656.52,131.39,653,127.36Z"/>
      <path class="cls-1" d="M664.79,141.65l-.54-.65C664.54,141.43,664.79,141.76,664.79,141.65Z"/>
      <path class="cls-1" d="M611.19,86.85l.51.54.18,0Z"/>
      <path class="cls-1" d="M654.87,130.17c2.38,2.88,3.93,4.51,5.42,6-1.86-2.09-3.82-4.31-5.91-6.71C654.13,129.29,654.06,129.28,654.87,130.17Z"/>
      <path class="cls-1" d="M634.15,107.09l2.16,2.23c.75.79,1.49,1.65,2.27,2.51-.62-.72-1.53-1.86-2.42-2.8A21,21,0,0,0,634.15,107.09Z"/>
      <path class="cls-1" d="M663.57,139.94l.36.43C663.24,139.34,663.3,139.49,663.57,139.94Z"/>
      <path class="cls-1" d="M663.57,139.94c-1.24-1.48-2.26-2.61-3.28-3.74l4,4.8C664,140.62,663.74,140.23,663.57,139.94Z"/>
      <path class="cls-1" d="M598.68,80.39A34.89,34.89,0,0,1,604.09,84c1.43,1.08,3.07,2.29,4.69,3.66S612,90.58,613.51,92c6.48,5.21,3.24.69-1.81-4.65-.34,0-.31,0-7.24-5.13,1.09,1,4.84,4,7.31,6.44s4.1,4,1.25,1.72c-2.19-1.81-3.68-3.14-4.85-4.07s-1.92-1.55-2.52-2.08c-1.2-1-1.79-1.7-3.9-3.49,1.69,1.65-1.26-.44-4.44-2.68s-6.75-4.4-5.93-3.42c2.78,1.79,5.39,3.83,8,5.8C599.51,80.68,596.57,78.6,598.68,80.39Z"/>
      <path class="cls-1" d="M624,98.19l2.59,2.4c-1.45-1.4-2.62-2.69-4-4L617.87,92c-4.58-3.72-5.6-4.4-6-4.57l6.57,5.73L621.73,96l1.64,1.44L624.94,99Z"/>
      <path class="cls-1" d="M638,111.65c-.56-.43-1.33-1.13-2.17-1.85l-2.47-2c-1.42-1.14-2.13-1.59-.42.37l2.41,2.26L637,112c.9.89,1.47,1.42,2,1.85,1,.86,1.6,1.33,3.81,3.51-11.63-12,3.49,3.31-4.69-5.62,2.33,2.34,4.39,4.47,6.33,6.48l-5.84-6.42.25.3,0,.06h0c.46.56.6.76.06.14l-.25-.24a3.5,3.5,0,0,1-.64-.44c-3.29-3.57-.45-.63.64.44a1.82,1.82,0,0,0,.19.1l0-.05c-1-1-1.94-2-3-3l-3.08-2.86-6.16-5.71c1.27,1.25,2.71,2.64,4.55,4.39.92.88,1.94,1.85,3.09,2.93l1.83,1.73C636.71,110.26,637.35,110.94,638,111.65Z"/>
      <path class="cls-1" d="M688.17,178.89c-.25-.46-.21-.45-.21-.5C687.33,177.51,687.08,177.18,688.17,178.89Z"/>
      <path class="cls-1" d="M684.68,173a61.07,61.07,0,0,1,3.49,5.1c1.74,3-.18.09-.21.32,1.41,1.92,4.67,6.91.91.46l-.69-1c-3.5-5.74-7.73-13.33-7-12.37A67.24,67.24,0,0,0,684.68,173Z"/>
      <path class="cls-1" d="M662.58,140.84c-2.85-3.67-6-7.08-9.11-10.55l4.36,5.6-.06-.41c.64.75,1.2,1.38,1.64,1.94s.81,1,1.11,1.39c.62.75,1,1.17,1.23,1.42C662.23,140.72,662.21,140.51,662.58,140.84Z"/>
      <polygon class="cls-1" points="610.12 85.64 611.82 86.5 610.18 85.3 608.5 84.17 605.12 81.92 610.12 85.64"/>
      <path class="cls-1" d="M595.8,74.43l.76.1c-1.31-.92-2.69-1.74-4-2.62Z"/>
      <path class="cls-1" d="M55.1,561.56,57.23,565Z"/>
      <path class="cls-1" d="M41.14,535.73l-.5-.56C41.36,536.34,41.68,536.8,41.14,535.73Z"/>
      <path class="cls-1" d="M175.79,56.14c-5.24,2.92-11.2,6.06-10.34,6l1.79-.63C170.72,59.22,173.44,57.53,175.79,56.14Z"/>
      <path class="cls-1" d="M8.6,300.78c.14-.55.29-1.12.43-1.69.18-1.43.35-2.79.5-4C9.25,296.8,8.82,298.72,8.6,300.78Z"/>
      <path class="cls-1" d="M9.63,305.24,8,312.88C8.38,311.16,8.92,308.71,9.63,305.24Z"/>
      <path class="cls-1" d="M164.12,677.4c1.37.8,2.73,1.6,4.15,2.3-1.57-1-2.53-1.67-3.15-2.08a5,5,0,0,0-1-.58C163.94,677,164.42,677.48,164.12,677.4Z"/>
      <path class="cls-1" d="M425.45,4.2c-5.1-.82-9.17-1.4-12.76-1.88C418.85,3.35,423.77,4.35,425.45,4.2Z"/>
      <path class="cls-1" d="M45.31,553.76c1.32,2.15,1.93,3,2,2.92C45.94,554.48,45.14,553.25,45.31,553.76Z"/>
      <path class="cls-1" d="M397.82,1.08l2.72.31,5.77.34c2,.15,4.1.24,6.38.59-2.26-.44-4.72-.62-7.24-.85S400.35,1.12,397.82,1.08Z"/>
      <path class="cls-1" d="M677.83,579.87l.76-1.08C678.61,578.65,678.29,579.15,677.83,579.87Z"/>
      <path class="cls-1" d="M741.8,423.45c-.2,1.68-.54,4.41-.85,7C741.14,429.19,741.4,427.08,741.8,423.45Z"/>
      <path class="cls-1" d="M533.38,36.45c3.48,1.65.58.19,0,0Z"/>
      <path class="cls-1" d="M549.28,46.47a4.59,4.59,0,0,0-1.46-.51A6.4,6.4,0,0,1,549.28,46.47Z"/>
      <path class="cls-1" d="M359.52,3.13h-.33C360.33,3.2,360.13,3.19,359.52,3.13Z"/>
      <path class="cls-1" d="M538.48,39.23c-1.27-.7-2.73-1.51-4.34-2.36Z"/>
      <path class="cls-1" d="M537.87,38.69l3,1.58C541.32,40.42,541,40.19,537.87,38.69Z"/>
      <path class="cls-1" d="M528.47,34.26c2,.9,3.88,1.77,5.67,2.61-.68-.34-1-.49-.76-.42Z"/>
      <path class="cls-1" d="M420.81,740.17l.82-.06C425.42,739.45,423.75,739.69,420.81,740.17Z"/>
      <path class="cls-1" d="M101.86,122.81l.29-.33-.4.4Z"/>
      <path class="cls-1" d="M93,133.24a67.71,67.71,0,0,1,8.74-10.36c-1.34.82-2.73,1.6-4,2.46Z"/>
      <path class="cls-1" d="M96.62,618.18l-6-7.5c4,4.17,7.37,7.86,9,9.62.81.89,1.27,1.23,1.1,1s-.87-1.18-2.23-3c-.48,0-2.24-1.8-4.66-4.44s-5.55-6.08-8.36-9.79-5.78-7.3-8.06-10.05-3.75-4.78-4.22-4.85l-3.43-5.32c1,1.48,1.27,1.67,2.3,3.14-6.63-10.36-6-6.93-14.51-20.37-.74-1.17-1.36-2.29-1.86-3.25s-.91-1.74-1.17-2.28c-.52-1.07-.46-1.13.55.46l-6.43-10.51c-.9-1.55-1.12-2.2-1-2s.73,1.11,1.62,2.66l-1.19-2L47,547.57l-2.17-4.17-4.33-8.33.1.1c-.75-1.13-1.75-3.07-2.78-5s-2.07-4-2.75-5.31c-1.79-4.44,1.12,2.12.77.94l-2.29-4.68-1.15-2.34-.58-1.17-.51-1.2c-.62-2-.06-1.08,1,1.21s2.85,5.83,4.31,9.11a49.6,49.6,0,0,0-3.94-9.82c-.73-1.62-1.6-3.57-2.72-6.35-.57-1.39-1.19-3-1.89-4.85-.35-.94-.72-1.94-1.11-3s-.83-2.22-1.18-3.49c.51,1.56,1.21,3,1.82,4.56l1.88,4.53c-.4-1.54-.89-3.13-1.46-4.82S26.81,500,26.23,498c-1.22-3.89-2.68-8.34-4.22-13.65.6,2.54,6,21.4,2,10.83-.9-3.05-2.27-7-4.38-12.74.44-.19-1.29-5.87-3.35-13l.75.32c-.6-1.91-1-3.31-1.39-4.4s-.57-1.89-.8-2.57c-.46-1.37-.84-2.33-1.51-4.6-2-8.75-1.92-10.66-1.83-12.82-2.41-14.13,1,9.9-2.14-6.79-.46-2.95-.92-5.68-1.39-8.32s-.72-5.25-1.08-7.91-.8-5.4-1.24-8.35l-.35-2.25c-.1-.77-.16-1.56-.25-2.37-.17-1.61-.34-3.29-.52-5.07-.42-8.36.5,1.42.45-1.58l-1.07-7.36c-.13-1.81.08-1.23.18-.94-.19-1.55-.27-2.36-.35-2.85a5,5,0,0,0-.25-.95c-.17-.57-.35-1.58-.56-6.5a22.25,22.25,0,0,1-.26-4.46l0-3.73,0-2.14c0-.74.09-1.5.14-2.28.2-3.12.41-6.53.54-9.92s.08-6.77.19-9.81c.41-3,.28,1.46.6.57.37-8.34.53-11.91.67-15.11,0-1.61.23-3.1.36-5.07l.6-7.8.94-5.77c.3-1.92.79-3.82,1.18-5.72-2,8.37-.62-2.51.62-12.1-.77,3-1.42,5.5-1.83,7.21L8,300.37c.17-1.27.44-2.53.71-3.79l.78-3.77c.52-1.79.38-.23.08,2.28l.48-2.78c1.47-5.31,1.19-2.44.65,1.47-.55,1.8-1.09,3.58-1.63,5.31-.28,3.82-.48,7.39,0,6.68.11-1,.38-2.89.72-5-.07,1-.09,1.64.05,1.2s.23-2.12.67-4.59L12,294.16l-.09-.88,2.47-9.72c.21-.8.39-1.62.64-2.42l.73-2.39L17.21,274l2.34-10.35c1-3.42,1.93-6.91,3-10.65.54-1.87,1.09-3.81,1.67-5.83s1.4-4.06,2.16-6.24S28,236.45,28.83,234s1.79-4.94,3-7.54c-1.85,5.38.29,1.45.73,2a34.92,34.92,0,0,0-2.33,5.06c-.79,2-1.61,4.21-2.49,6.61s-1.85,5-2.73,7.64-1.75,5.48-2.73,8.26c2-5.81,1.88-4.42,1.48-2.91l1.54-5,.39-1.25.45-1.24.89-2.47,3.58-9.9c.15.32.65-.68,1.38-2.39s1.9-4,3.11-6.52c-1.32,1.69.15-2,2.35-7,.55-1.26,1.13-2.62,1.76-4l2-4.07c1.34-2.68,2.61-5.23,3.52-7.18.54-.31-.09,1.67-4.93,10.93a78.82,78.82,0,0,0,5.81-11.83,58.51,58.51,0,0,1,6.06-11.54A35.94,35.94,0,0,0,49.34,194c1.35-2.66,3.9-7.12,5.93-10.52a41.65,41.65,0,0,1,2.55-3.88c.58-.8.78-1,.38-.23l-1.37,2.15,8.26-12.81c.74-1.21,1.58-2.38,2.42-3.55l2.5-3.56,4.9-7,1.18-1.69c.39-.55.81-1.07,1.21-1.6l2.31-3c1.46-2,2.81-3.76,4-5.31s2.1-2.89,2.79-3.91a17.69,17.69,0,0,0,1.29-2,12.67,12.67,0,0,1-1.14,3.27c5.75-8.3,11.6-16.62,18-24.51-1.31,2.43,7-3.75-2.39,6.69,1.42-1.42,3-3,5-5s4.19-4.54,7.22-7.51a20,20,0,0,1-3.29,2.35c-.8.47-1.08.31.26-1,4-3.28,5.4-4.43,7-5.81l2.88-2.52c1.25-1.08,2.87-2.55,5.42-4.46-3.22,2.58-.53-1.27,4.44-5.52-.66.79,1.14.5-.58,2.15l5.77-5.74c.94-1,2-1.85,3-2.77l3-2.73c-3.06,2.66,0,1.18,3.08-.8-.73.43,2-1.73,5.38-4.34s7.56-5.35,9.27-6.66l-5.75,3.77c3.75-2.62,6.49-4.66,8.73-6.42L166,67l2.75-2.11c1.78-1.39,3.57-2.78,5.87-4.44a85.71,85.71,0,0,1,9.06-5.85c-1.8,1.3-4,3.93,4.1-.55l4-3.07c1.78-1.34,3.94-3.06,6.56-4.72s5.54-3.59,8.72-5.53c1.6-1,3.21-2,5-2.89s3.53-1.8,5.35-2.68l3-1c3.72-1.82,7.42-3.71,11.26-5.26-3.49,1.69-9.88,5.47-16.76,9.26l-2.59,1.44c-.87.48-1.71,1-2.56,1.55l-5,3.06-8.82,5.34c6.19-2.94,1.88-.54,11-5.25,3.36-1.37-4.75,3-7.42,4.35L210,43.3,212.66,42l2.73-1.21,5.44-2.4c-.62-.09,3.46-2.12,7.57-4.15,4.18-1.86,8.42-3.65,7.89-3.75-8,3.21-15.7,7.23-23.49,10.94-.63-.09,2.58-2.06,7.9-4.88l4.35-2.25c1.57-.79,3.22-1.66,5-2.39,3.56-1.52,7.44-3.11,11.4-4.64,4.11-1.33-2.58,2.31-2.16,2.38.49-.25,1.66-.77,3.16-1.42l2.45-1c.88-.37,1.82-.67,2.74-1,3.71-1.32,7.36-2.57,8.12-2.74l-6.68,2.64c4.5-1.39,8.06-2.83,11.88-4.3l1.44-.56,1.5-.48c1-.32,2.07-.64,3.17-1,2.21-.64,4.62-1.28,7.39-1.9.94-.25,2.13-.53,3.38-.81s2.59-.56,3.84-.74a22.35,22.35,0,0,0,4.84-1.05c-6.37.69-8.22-1.32-4.18-2.85l11.23-2.14c1.36-.25,2.75-.54,4.1-.75L301.6,9c2.45-.32,4.48-.57,5.6-.67,6.46-.54-9.28,3.11-3.78,2.66a40.15,40.15,0,0,1,5.11-1.41c4.07-.56-1.58.86,7.19-.79,1.37-.89,18-2.24,4.1-1.12,4.32-.64,6.63-.9,9.13-1.16s5.17-.62,10.29-1c-1.65-.1.61-.64,4.39-1.27,1.89-.32,4.16-.66,6.5-1,1.17-.15,2.36-.33,3.53-.42l3.43-.2c-.51.19,1.47.37,2.43.44l12.15-.22c3.69.07,7.1.25,10.47.36s6.7.2,10.23.43l11.43.92c.76.14,3.15.41,4.91.65s2.9.53,1.18.47c2.4.16,4.61.23,9.73.85,9.82,1.85-11.41-1.35-3.95.31a58.8,58.8,0,0,1,7.81.53l3.24.33c1.1.1,2.23.22,3.33.41l6.17.93a21.41,21.41,0,0,0-3.62-.93,61.8,61.8,0,0,0-6.46-1c-4.85-.54-10.35-1-14-1.39,0-.42,3.24-.45,8.65-.14l4.44.29c1.61.14,3.35.2,5.16.49,3.64.5,7.7,1.09,12,1.77l4.21.71c1.11.19,1.92.44,2.54.58,1.22.32,1.59.48,1.61.56s-1.33,0-.14.22c6.37,1.51,10.94,2.49,14.54,3.2,3.55.87,6.15,1.44,8.61,2s4.79,1.06,7.8,1.85c1.52.35,3.16.94,5.08,1.6s4.11,1.45,6.67,2.39c8,3.28,0,1.14,1.71,2.12-5.42-1.71-9.49-3.24-13.18-4.51s-7-2.23-10.69-3.28l9,2.84c-3.52-.82-10.83-2.75-14.76-4,1.7.61,5.21,1.67,9.81,3l7.63,2.22,8.61,2.93c3,1,6.1,2,9.17,3.17l9.07,3.62,4.39,1.76c1.44.57,2.85,1.14,4.18,1.79l7.46,3.52c3.33,1.31,9.05,3.69,6.48,2.29l-5.85-2.56c-5.17-2.82,11.21,4.41,3.93.89l3,1.24c1,.45,2,.94,3.07,1.42l6.5,3.07c2.25,1.08,4.59,2.22,7,3.47s4.86,2.8,7.46,4.36l1.66,1.66a93.05,93.05,0,0,0-9.71-5.77c2.26,1.11,6.17,3.62,10.16,6.07,2,1.24,4,2.44,5.85,3.52a41.05,41.05,0,0,0,4.68,2.64c-2.31-1.62-4.57-3.34-7-4.82.95.52,2,1,2.94,1.57l3,1.76L575.43,61l3.32,2c1.11.68,2.25,1.34,3.33,2.12,2.18,1.5,4.36,3,6.52,4.64-3.64-3.31-2-1.4-7.9-6.36,2.54,2.16-3.24-1.56-8.6-5-2.68-1.72-5.24-3.4-6.64-4.17s-1.59-.73.57.82c-3.15-2.33-6.07-4.07-9.23-6l-5-3-1.37-.85-1.47-.84-3.14-1.85c.18.33,3.05,2-4.94-2.2-.39-.14-1.28-.51-1.85-.75l-.53-.29.43.25c-.36-.15-.39-.16.16.09,1.88,1.06,3.38,2,3.95,2.37-1-.41-2.63-1.12-4.48-2l-2.95-1.41L534,37.78l-1.62-.71c-4.36-1.88-8.75-3.8-11-4.69-4.83-2.29,2.12.71-.45-.69l-3.37-1.32-3.43-1.18c-.48-.67-12.94-5.9-1.11-1.52l-10.56-4.19c-1.52-.7-3.25-1.31-5-2L492,19.59l-5.29-1.8c-1.68-.54-3.22-1.08-4.61-1.39-5.14-1.56-13.16-3.22-8.58-2.29-2.87-.75-5.72-1.56-8.61-2.26L456.23,10l-.14-.14c-8.51-2.2-17.5-3.36-26.71-5-9.29-1.07-18.84-2.54-28.84-3.49L391.08.84c-3.5,0-7.5-.15-12.44-.34L376.72.06c-3.8-.14-9.5,0-14.67.05s-9.79.11-11.41.52c-2.06-.1-5.39,0-9.44.24l-6.54.44c-2.31.22-4.72.58-7.17.89l-7.39,1c-2.46.34-4.9.62-7.2,1.1-4.63.86-8.86,1.63-12.16,2.17l-.4.59-3.39.6-3.34.79-6.82,1.64-7.21,1.77c-2.48.68-5.05,1.51-7.78,2.32l.79.24c-4.66,1.57-10.81,3-17.47,5.29l-10.47,3.35c-3.57,1.28-7.18,2.71-10.79,4.14a68.33,68.33,0,0,1,7.24-2.88c-4.41,1.46-8.89,3.14-13.36,4.92s-8.77,4.06-13.1,6.11-8.47,4.38-12.55,6.48-8.07,4.07-11.77,6.09c-3.56,2.24-6.22,3.7-8.83,5.07.34-.19.64-.37.89-.54l-1.49.86c-.82.44-1.67.85-2.52,1.32l-2.58,1.52c1.54-.85,3-1.71,4.29-2.38-1.42.78-3.09,1.94-5,3.16l-5.88,3.92-2,.71-.93.61c-4.08,2.41-3.08,2.24-.75,1.18-2,1.33-3.73,2.77-5.08,3.84a47.26,47.26,0,0,0-7,4.66c-1.34,1-2.71,2-4,2.91a38.07,38.07,0,0,1-3.72,2.48c-1.15,1.16-5.86,5-10.46,8.75-4.43,4-8.74,8-9.42,9.13-.2,0-1.31.92.65-.79l-3.07,2.58-1.52,1.28-1.43,1.35c-1.89,1.79-3.71,3.57-5.36,5.32L113,106l-4,4.33-3.74,4.52c-5.16,4.87-7.37,6.87-2.83,1.43l-6.34,7.19-3.52,4.28c-2,2.43-3.85,4.56-8.22,10.33l.13-.81c-3.19,4.09-7.88,10.92-10.07,13.17-1.89,2.2-4.84,6.27-8.6,11.43-.93,1.31-1.94,2.64-2.92,4.1l-3,4.59-6.46,10c-2.07,3.6-4.22,7.32-6.39,11.08l-1.63,2.82c-.55.94-1.1,1.88-1.58,2.86l-3,5.79-3,5.71c-.49.94-1,1.88-1.47,2.8s-.89,1.89-1.34,2.82l-5,10.68c1.74-2.38.13.68-1.7,4.61s-3.83,8.73-3.63,9.44c-.89,1.51-2.56,5.32-1,.74-.68,1.78-1.31,3.45-1.92,5s-1.05,3.1-1.55,4.52l-2.74,7.83c-.41,1.21-.82,2.39-1.22,3.55-.19.58-.39,1.16-.58,1.74s-.32,1.17-.48,1.76c-.62,2.35-1.2,4.73-1.73,7.31-.74,1.59.5-3.25-.08-1.8A61.37,61.37,0,0,1,11.79,276c-.58,1.45.38-2.2.93-4.55-1.05,3.74-1.82,6.66-2.36,8.95s-.68,4-.81,5.24c-.25,2.48,0,3.23.26,3.87-1.06,3.78-1.81,6.64-2.37,9.25s-.72,5-1,7.86c-.74,2.64-1.81,7.09-.21-2.42-.25,1.34-.75,4-1.37,7.35-.31,1.65-.65,3.46-1,5.33s-.51,3.82-.76,5.72c-1,7.61-1.83,14.62-1.41,14.94-.29,1.67-.63,7.54-.66,9-.24,3-.43,5.37-.59,7.36s-.13,3.64-.19,5.28c-.08,3.27-.16,6.52-.3,12.49l.19-3.31a30.81,30.81,0,0,1,.26,3.69c0,1.3,0,2.69,0,4.24,0,3.09,0,6.79.17,11.6l-.08-.28c-.08,5.52.23,8.86.37,11.13s.28,3.43.4,4.6.23,2.32.38,4.55L2,412.16c.18,1.77.4,3.95.67,6.65L3,417.58c.64.95,1.09,5.73,1.64,11.86.33,3.05.86,6.41,1.36,9.8s1.08,6.79,1.77,9.87c-.22-1.51-.37-3-.55-4.54.41,1.68.64,3.74,1.08,5.93s.74,4.59,1.08,7c.72,4.79,1.22,9.65,2.21,13,.35,1.47-.84-2.25-1.39-4.3,4.29,17.7,1.23,2.12,5,15.11.18,1.25-.25.54-.42.61s-.1.28.05,1.05a32.18,32.18,0,0,0,1.21,4.26c.61,2.19,3,8.4,5.66,15.5,1.51,3.5,3.09,7.23,4.54,10.82.72,1.79,1.42,3.56,2.05,5.24s1.37,3.22,1.93,4.67c-.89-2.6-1.77-5.18,1,.47,3.86,8.8,10.27,24,15.32,31.16a6,6,0,0,1,.69,1.61l3.58,5.92c1.37,2.28,2.83,4.79,4.44,7.09,3.13,4.67,6.09,9,7.47,10.75a13.76,13.76,0,0,0,.66,1.52c.32.58.72,1.24,1.17,2,.92,1.46,2.09,3.18,3.41,5.06s2.81,3.94,4.36,6l1.16,1.59,1.26,1.55,2.52,3.08c1.68,2,3.32,4,4.83,5.91s2.86,3.59,4.11,5c2.44,2.82,3.91,4.73,3.6,5l3.72,4.26c1.26,1.41,2.44,2.89,3.78,4.22l7.85,8.17-.52-.31,3.45,3.63c1.07,1.1,2.12,2,3.06,2.94,1.9,1.77,3.5,3.23,4.89,4.47,2.8,2.46,4.71,4.15,6.75,5.68,2.46,2.27.52.77.26.65,7.9,7,12.18,11,16.54,14.16,2.15,1.64,4.22,3.18,6.66,5,1.24.88,2.51,1.88,4,2.85l5,3.26,1.22,1.47c1,.64,3.06,2.11,5.81,4.13,1.36,1,3,2.09,4.74,3.26l5.67,3.78,6.31,4.15,6.9,4,7.07,4c1.17.68,2.38,1.27,3.57,1.85l3.56,1.72a10.31,10.31,0,0,1-2.14-.84c10.46,5.19,22.95,11.5,34.17,16.16l8.05,3.28,3.69,1.46,3.47,1.14a64.48,64.48,0,0,0,10.09,2.63l3.68,1.12c1.24.35,2.49.64,3.74,1l7.46,1.89c-19.1-5.57,3.06.06-4.72-2.46,3.77,1,8.58,2.52,11.3,3.46a9.56,9.56,0,0,1,2.14.77,14.14,14.14,0,0,1-3.42-.73l-1.42-.49c-.91,0,.11.42,2.16,1.09s5.15,1.33,8.34,2.11l8.92,2.15c1.22.32,2.24.55,2.94.71s1.06.3,1,.36L314,741.83c1.2.24,2.41.39,3.61.54l3.61.47,7.21.94,3.59.48c1.2.16,2.39.32,3.6.4l7.19.59,7.16.59c1.19.08,2.38.22,3.58.27l3.57.11,14.23.46c4.72,0,9.43-.15,14.11-.22,2.34-.07,4.68,0,7-.2l7-.49,6.93-.51,3.45-.25c1.15-.09,2.29-.27,3.43-.4-1.43-.08-2.85-.1-4.28-.27,1.07-.05,2.13-.18,3.18-.32l3.18-.39,6.35-.79c3.36-.25,4.56,0-4.52,1.12a83.35,83.35,0,0,0,9.43-1.24l2.27-.41c.7-.16,1.33-.33,1.86-.46a12.23,12.23,0,0,0,1.81-.54c17.68-2.85-6.74,2.08-1.34,1.13l7.34-1.37-1.67.21,6.75-1.62c1.1-.26,2.37-.52,4-.87s3.68-.89,6.35-1.5c6.81-1.42,3.58-.36,6.26-.95a3.06,3.06,0,0,0,.85-.14c.62-.14,1.65-.39,3.25-.79,5.22-1.33,10.38-2.87,15.58-4.29l-6.38,1.21c3.41-1.12,7.06-2.15,8.94-2.72.94-.28,1.42-.52,1.23-.51s-1.07.18-2.91.52c.67-.13,1.49-.29,2.43-.53l3.12-.91c2.3-.7,5-1.56,8-2.52,6-1.78,12.83-4.65,19.6-7.27,3.41-1.26,6.65-2.84,9.76-4.23l8.64-3.92c1.32-.57,2.51-1.2,3.61-1.76l3-1.53c1.79-.9,3.14-1.56,3.91-1.91,2.18-1.24,4.36-2.44,6.58-3.65l6.64-3.93c4.52-2.67,9.39-5.3,14.49-8.69-2.62,1.54-4.49,2,4.42-3.65-.63.8.09.58,1.65-.26a63.78,63.78,0,0,0,6.58-4.12l8.33-5.71,3.92-2.59c1.18-.83,2.26-1.56,3.18-2.13-3.2,2.11,2.69-2.57,8.12-6.93,2.76-2.13,5.2-4.44,6.46-5.62s1.23-1.38-1.17.41c6.73-5.69.73,0,6-4.11l3-2.68c1-.89,2-1.78,3-2.76l6.07-5.84c2.07-2,4.23-3.95,6.33-6l6.28-6.47c2.11-2.2,4.33-4.36,6.42-6.67s4.14-4.7,6.25-7.08q1.56-1.8,3.15-3.6l1.58-1.81,1.5-1.89,6-7.64c.11-.43-2.78,2.82.45-1.71,3.13-3.35,5.89-7,8.81-10.52a50.06,50.06,0,0,0,2.78-4.72c.42-.74,1-1.57,1.73-2.69s1.71-2.57,3.1-4.46c-.84,1-2.09,2.57-.28-.35a340.46,340.46,0,0,0,35.45-68.65,443,443,0,0,0,21.15-75c-1.57,6.83-.78,2.23.14-3-.68,3.41-.42-.14-.77.49.61-3.54,1.14-7.1,1.71-10.66l.85-5.34.42-2.67c.14-.89.21-1.79.31-2.68-.18-2,.25-7.77.66-13.34.09-1.39.25-2.77.26-4.07s0-2.54.06-3.63a27.71,27.71,0,0,0-.17-4.37l-.06,6.83c-.28-4.56-.71-1.39-1.34,2.72s-1.61,9.15-2,8.45a86.21,86.21,0,0,1-.48,8.69c-.39,3.2-1,6.69-1.62,10.38-.29,1.85-.6,3.74-.9,5.67-.15,1-.29,1.95-.44,2.93s-.36,2-.55,3c-.72,4-1.35,8.06-1.78,12.2-.84,3.56.24-3.13-.32-1.25-.22,4.24-1.4,9.18-3.67,18.31l.14-1.06c-.37,1.61-.72,3.16-1.06,4.66s-.82,2.92-1.21,4.32l-2.27,7.91c-.37,1.26-.73,2.49-1.08,3.71-.18.61-.35,1.21-.53,1.81s-.4,1.18-.6,1.76c-.82,2.34-1.63,4.63-2.44,6.95l-2.51,7.09c-.4,1.23-.91,2.44-1.42,3.67s-1,2.51-1.56,3.82c-1.07,2.61-2.2,5.37-3.4,8.33-.31.74-.61,1.49-.92,2.25l-1.07,2.3-2.25,4.85,1.34-1.81c-2.69,5.79-3.37,7-4.71,9.61-2.36,7,7.41-16.29,5.39-9.89-1.09,1.83-2.8,5.3-4.79,9.56-1,2.15-2.21,4.38-3.41,6.75L699,545.87l-1.85,3.6c-.64,1.17-1.32,2.3-2,3.41l-3.65,6.18c-2.24,3.74-4,6.58-5.06,7.61-5.29,8.24,2-2.13-3.28,6.11l-1.65,2-1,2.29c-.89,1.34-1.65,2.53-2.38,3.49s-1.38,1.76-1.91,2.39a8.53,8.53,0,0,1-1.87,1.91c.93-1.25,2.51-3.65,3.46-5-2.55,3.29-5.93,8.08-8.88,12.34-1.43,2.16-3,4-4.14,5.6s-2.09,2.72-2.56,3.26c2-2.43,4-4.83,5.93-7.3-2,2.69-4.12,5.37-6.26,8.14-1.08,1.38-2.16,2.78-3.26,4.18L657,608.2c-.57.69-1.17,1.37-1.75,2l-7.16,8.27c-1.22,1.37-2.36,2.82-3.65,4.14l-3.81,4-7.58,8-7.79,7.5c-5,5-10.29,9.47-15,13.85l1.63-1.11c-1.84,1.65-3.39,3.07-4.77,4.26l-3.72,3c-2.16,1.69-3.79,2.92-5.47,4.18-.83.64-1.68,1.28-2.62,2s-1.95,1.51-3.19,2.35c-2.45,1.71-5.57,3.91-10,7.1l.61-.51a138.41,138.41,0,0,1-13.23,9.13c4.47-3.17-8.94,5.13-3,1l-3,2-2.54,1.54-3.65,2.23c-1.89,1.16-2.82,1.76-3.54,2.25L551.38,697a68,68,0,0,1-5.78,3.68l-3.08,1.16c-2.07,1.25-3.17,2-5,3a91,91,0,0,1-9.18,4.68c8-4-6.54,2.33,2.35-2.15-5.26,2.16-9.78,4.15-13.77,6s-7.59,3.14-10.76,4.5l-4.53,1.89-2.11.86c-.69.27-1.39.48-2.06.71a79.15,79.15,0,0,1-7.82,2.18c-4.78,2.15-.08.72,5.14-1l3.87-1.29c1.23-.4,2.31-.89,3.17-1.21,1.71-.67,2.45-.94,1.11-.36,2.34-.74.4.23-3,1.71s-8.3,3.05-11.69,4.15c-1.73.58-3.35,1-5.08,1.49s-3.61.76-5.8,1.23-4.71,1-7.78,1.76c-1.54.37-3.21.79-5,1.28l-6.11,1.36c1.77-.4,1.88-.5,3.64-.91-3.36.64-6.59,1.48-10,2.34-1.72.43-3.49.87-5.34,1.29s-3.82.64-5.9.91c-4.51,1.43-10.71,1.87-11.92,2.89L445.44,736c-4.66.93-9.14,2-14.4,3.17-2.62.63-5.49,1-8.65,1.43s-6.63.84-10.53,1.22c1.19-.31,5.79-1.11,8.95-1.63-2.28.18-4.46.49-6.67.81l-3.33.46c-1.13.16-2.29.17-3.47.22a18.85,18.85,0,0,1,3.85-.72c2.11-.33,4.9-.7,8-1.1s6.41-.82,9.61-1.29,6.21-1.23,8.68-1.82c-1.22.13-3,.44-4.92.81s-4,.84-5.72,1.06c-3.52.52-5.8.83-3.33.08a89,89,0,0,1-13.11,2.12c-5.11.35-10.85.66-17,1.56l.78-.54c-1,.08-2.46.36-4.16.43s-3.61.21-5.41.25l6.48-.78c-5,.38-9.8.39-14.57.37l-3.56,0c-1.19,0-2.37-.11-3.55-.14-2.37-.11-4.75-.18-7.14-.17,5,.13,7.8.23,9.29.33s1.69.12,1.53.23c-.32.2-2.09.48,2.16.54-3.1.22-5.65.11-7.78.08s-3.87-.1-5.34-.18c-2.93-.16-4.79-.37-6.75-.6s-4-.59-7.27-1c-1.64-.19-3.59-.4-6-.61l-4-.32-2.27-.17c-.79,0-1.61-.12-2.47-.23.93.12,2.27.23,3.67.36s2.85.29,4,.43c2.3.28,3.4.51.47.39l-4.17-.4c-1.44-.15-2.9-.27-4.28-.52-2.78-.45-5.29-.88-6.88-1.2-18.21-2.22,2.73.84-5.06.14-3.06-.68-5.3-.87-7.76-1.2s-5.17-.52-9.16-1.13l0-.49c-2.57-.5-4.58-.87-6.18-1.15s-2.74-.6-3.62-.76a15.69,15.69,0,0,0-3-.36c-1.15,0-2.06,0-11.21-2.29l7.93,1.15-4.81-1c-1.6-.36-3.22-.64-4.79-1.1.7,0,1.39,0,2.09,0-5.19-1.21-8.58-2.13-11.92-3.07l-5.21-1.51c-1.87-.56-3.89-1.36-6.36-2.21,2.2,1.1-1.57.39-10.38-2.57a9.81,9.81,0,0,1-2.12-1c-.14-.12.09-.08.12-.1s-.15-.13-1.1-.51L238,717.55c1.44.4,2.94.81,4.74,1.44.89.3,1.86.68,2.93,1.11s2.27.86,3.59,1.42c.61,0,2.87.65,3.49.7-6.4-2.31-16-6-20.42-7.73,1.69.69,3.72,1.51,4.74,2-3-1.08-6-2.09-9-3.22l-8.82-3.62c-2.66-1.4-.43-.55,1.78.29-1.77-.77-3.28-1.38-5-2.08s-3.67-1.46-6.18-2.78c1.49.3,1.29-.1,8.69,3-5.62-2.24-11-5-16.46-7.59-.5-.35-2.51-1.51-4.13-2.47a20.36,20.36,0,0,1-1.87-1.19c-.36-.27-.4-.34.13-.08-4.28-2.62-9.74-5.47-15.48-8.66-2.82-1.69-5.71-3.45-8.6-5.24a101.18,101.18,0,0,1-8.43-5.62c-.61-.34-1.78-1.09-4.13-2.68l-7.43-5.43L145,663.36l-7.51-6c-2.53-2.16-5.2-4.38-8.09-6.71l-3-3L125,646.17l-1.41-1.58c-8.52-7.9,7.66,8.53-6.54-4.65-5-4.65-5.88-5.63-5.83-5.92s.86.24-.73-1.56c-2.47-2.34-5.88-5.54-9.72-9.33l-1.45-1.46-1.42-1.57L95,616.8c-2-2.27-3.94-4.66-5.89-7.13C92,612.74,94,615.27,96.62,618.18ZM24.12,495.45l1.95,5.1a36.58,36.58,0,0,1,1.72,4.59,24.06,24.06,0,0,1-2-4.16C25.26,499.47,24.81,497.72,24.12,495.45ZM14.24,280.3c-.41,2-1.14,5.16-2.15,8.64C12.66,286.38,13.28,283.46,14.24,280.3ZM494.11,20.86l-.29-.08C487.93,18.59,490,19.37,494.11,20.86Zm12.18,4.65c1.24.42,1.18.33.69.06-.89-.21-3.61-1.3-6.71-2.52A49.77,49.77,0,0,0,506.29,25.51ZM461.63,735.84l-2.5.45C464.68,734.87,463.15,735.35,461.63,735.84Z"/>
      <path class="cls-1" d="M9.52,304.65a2.9,2.9,0,0,1-.47,1.12C8.94,306.87,9,306.9,9.52,304.65Z"/>
      <path class="cls-1" d="M163.36,677l.36.26a2.4,2.4,0,0,0,.4.18Z"/>
      <path class="cls-1" d="M308.51,10.32c-2.63.4-4.1.57-5.09.66C303.3,11.12,304.51,11,308.51,10.32Z"/>
      <path class="cls-1" d="M568.51,55.43c-2.34-1.52-4.82-2.81-7.25-4.18a63.35,63.35,0,0,1,6.4,4C567.56,55,566.3,54,568.51,55.43Z"/>
      <path class="cls-1" d="M624.18,101.51c.92.8,1.87,1.77,2.78,2.56l-.09-.4C623.12,100.11,620.38,97.76,624.18,101.51Z"/>
      <path class="cls-1" d="M574.16,61a14.26,14.26,0,0,0,3.15,2.35l3,1.92,3.45,2.39L583,67c.87.26,0-.47-1.72-1.69S576.81,62.56,574.16,61Z"/>
      <path class="cls-1" d="M584.91,68.38c1.48,1,3,2.08,4.4,3.11C590,71.71,587.56,70.19,584.91,68.38Z"/>
      <path class="cls-1" d="M521.69,31.53c2.48,1.24,1.8.25,3.16,1,1.52.41-2.77-1.36-5.68-2.47a9.19,9.19,0,0,0-2.47-.78c.06.06.45.21,1.24.57S519.94,30.78,521.69,31.53Z"/>
      <polygon class="cls-1" points="577.4 64.62 575.92 63.07 572.95 61.65 577.4 64.62"/>
      <path class="cls-1" d="M537.84,41.33l8.21,4.36a10.53,10.53,0,0,1,2.3,1C543.26,44.05,537.71,41.09,537.84,41.33Z"/>
      <path class="cls-1" d="M548.35,46.67c2.64,1.41,5.07,2.88,6.56,3.62C553.49,49.51,550.51,47.72,548.35,46.67Z"/>
      <path class="cls-1" d="M566.63,57.89c-.76-.52-1.5-1.06-2.27-1.56L558.69,53l4,2.38,2,1.19Z"/>
      <path class="cls-1" d="M443.5,9.17l-10-1.64c-1,0,1.66.58,5.39,1.18C441.28,9,445,9.61,443.5,9.17Z"/>
      <path class="cls-1" d="M473,17.63a38.61,38.61,0,0,1-4.2-1.59l-.45.52Z"/>
      <path class="cls-1" d="M444.29,10.86c-1,0-14.53-2.09-1.92.12.52,0,3.28.4,4.76.62.74.13,1.16.19.84.08l-1.11-.31Z"/>
      <polygon class="cls-1" points="292.84 11.64 295.35 11.05 294.78 10.13 292.84 11.64"/>
      <path class="cls-1" d="M170.82,65.5c10.18-6.21,2-2.11,11.32-7.58,1.16-.78-.83.19-2.68,1.37s-3.75,2.27-2.6,1.4C170.92,64.8,167.66,66.72,170.82,65.5Z"/>
      <path class="cls-1" d="M176.86,60.69l3-2.12C178.15,59.76,177.35,60.33,176.86,60.69Z"/>
      <path class="cls-1" d="M745.09,395.17c.33-2.57.35-5.17.52-7.76l-.47,5C745.17,393.34,745.1,394.25,745.09,395.17Z"/>
      <path class="cls-1" d="M744.82,380.24l.7-1.82-.47-4.67C745,375.51,745,378.91,744.82,380.24Z"/>
      <path class="cls-1" d="M19,474.76l-.31-.52a62.64,62.64,0,0,0,1.59,6.38Z"/>
      <polygon class="cls-1" points="60.7 569.46 59.75 567.95 61.06 571.08 60.7 569.46"/>
      <path class="cls-1" d="M115.93,636.61c-1.26-1.25-2.73-2.52-4.08-3.9s-2.71-2.77-3.93-4.07C113.26,634.25,116.15,637.76,115.93,636.61Z"/>
    </g>
    <circle class="cls-2" cx="372.29" cy="373.2" r="320.08"/>
    <circle class="cls-3" cx="372.29" cy="373.2" r="285.29"/>
  </g>
  <g id="bestik">
    <path d="M358.82,320s-51.26-8.9-47.6-82.12,56-69.56,56-69.56,60.68-2.62,63.29,73.22-46.55,77.93-46.55,77.93l10.46,243.21s-17.26,42.37-49.16,2.1Z"/>
    <path d="M491.32,350.89s-18.42-5.16-18.42-25,1.48-159.11,41.25-179c0,0,3-10.31,3.69,4.42s10.31,416.18,10.31,416.18-19.89,42-41.25,0Z"/>
    <path class="cls-4" d="M225.48,331.24s-33.29-12.57-31.81-42.16S207.73,173,207.73,173l8.87.37.19,111.13,3.69.19,2.59-110L234,175l.93,112.05h3.88l1.11-112.61,10.72.37,1.3,112.06,4.81.18.18-112.24,7.95.37s18.12,103,12.76,118c0,0-.19,24.59-28.66,36.06l9.43,229.84s-22.19,38.46-42.9-1.48Z"/>
    <path class="cls-5" d="M53.13,395.42S55,459,90,524.2l564.82-.77s38.11-72.22,36.78-127.7Z"/>
    <g>
      <path class="cls-6" d="M267.39,455.19l2,.7a4.7,4.7,0,0,1,3.28,5.58c-.28,1.4-.42,2.87-1.47,4a24.73,24.73,0,0,1-4.4,4.26c-.69.49-1.46.91-2.16,1.4-.35.21-.84.28-.91.84a.5.5,0,0,1-.56.49c-1.18-.07-1.67,1-2.58,1.4-.42.2-.35.9-.84,1.25,2.1.14,4.19.28,6.36.49a17.27,17.27,0,0,1,5,1,19.06,19.06,0,0,1,6.08,3.84,3.16,3.16,0,0,1,.7,3,15.06,15.06,0,0,1-1.54,3.84c-1.18,2.45-3.07,4.12-4.61,6.08a26.71,26.71,0,0,1-4.4,4.54c-.63.49-1.25.84-1.88,1.26a71.72,71.72,0,0,1-6.36,4.89c-1.18.69-2.16,1.46-3.42,2.3a11.68,11.68,0,0,1-.35-1.26c-.07-.35-.14-.63-.49-.7-1,0-1.33-.69-1.6-1.46-.07-.07-.14-.21-.28-.35-.91.49-1.12,1.95-2.59,2l-.28-1.95-1-7c.08-.28,0-.63.08-.91.69-2.45.48-5,.48-7.41,0-3,0-5.93-.07-8.94l-.21-8a10.07,10.07,0,0,1,.21-2.86,6.48,6.48,0,0,0,.21-2.31c.07-1.81.07-3.63.14-5.37-.07-.91-.14-1-1-1.12a4.7,4.7,0,0,0-2,.21c-.56.21-.91-.14-1.12-.63s-.21-.77-.28-1.26a.86.86,0,0,1,.7-1c.63-.07,1.26-.28,1.89-.35l11.38-1.47A16.57,16.57,0,0,1,267.39,455.19Zm-9.63,4.26c-.07,3.35,0,6.84-.28,10.19a3.94,3.94,0,0,0-.07,2c1.39-.56,2.65-1,3.28-2.24a1.34,1.34,0,0,1,.49-.34c2.79-2.1,4.33-5,6.21-7.83.63-1,.28-1.6-.84-1.74a9.49,9.49,0,0,1-3.84-1,6.12,6.12,0,0,0-4.19-.07C258,458.61,257.69,458.75,257.76,459.45Zm-.21,19.13c.42.35,1.11,0,1.18.63-.28.42-.84.21-1.25.42a26.92,26.92,0,0,0,.07,4.75c-.07,1.61.21,3.21.21,4.82s.21,3.14.34,4.68a35.1,35.1,0,0,0,.35,4.68,26,26,0,0,1,3.85-2.73,1.38,1.38,0,0,0,1-1,8.31,8.31,0,0,1,.56-1.12c1.26-2.31,2.8-4.33,3.84-6.77.49-1.33.91-2.66,1.47-4,.49-1,.49-1.25-.56-2.23a2.77,2.77,0,0,0-1.61-.84,17.36,17.36,0,0,0-5-.35,1.71,1.71,0,0,1-1.26-.56,28.21,28.21,0,0,0,5.45.14,1.17,1.17,0,0,0-1.54-.56,9,9,0,0,1-3.35-.49A6.52,6.52,0,0,0,257.55,478.58Z"/>
      <path class="cls-6" d="M291.49,454.07c.41-.14,1,1.75,1.18,2.37,0-1.74.28-3,1.26-.34a35.4,35.4,0,0,1,1.47,3.84c.35,1.53,1,3,1.18,4.54.14,1.18.28.83.84,1.88,1,1.75.91,3.77,1.4,5.66a82.92,82.92,0,0,0,3.14,9.15,39.21,39.21,0,0,1,1.75,7.12c.14.63,0,1.33.14,2a61.86,61.86,0,0,0,2.58,7.68,10.52,10.52,0,0,1,1.05,5c-.07.84-.14,1.74-1.33,1.88a.62.62,0,0,1-.63.77c-.35-.35-.83-.42-1.18-1.12-.14-.27-.63-.14-.7-.48-.28-.77-1.26-1-1.4-.35-.28,1.25-1.61.49-2.44.69a.7.7,0,0,1-1.05-.55c-.77-2.31-1.54-4.54-2.1-6.78-.48-1.88-1.46-3.63-1.81-5.59a1.1,1.1,0,0,0-1.26-.9c-2.72.14-4.82-.07-7.61.28-.63.07-1.82-.21-2.24.28s-.35,1.18-.56,1.81c-.27,1.33-.69,2.52-.83,3.84l-.56,4.82a15.16,15.16,0,0,1-.28,1.75c-.14.84-.49,1-1.54.77-.28-.07-.77-1.61-1-.49-.14.63-.69-1.12-.62-1.82a56.07,56.07,0,0,1,1.67-9.15l.21-1.05c.14-1,.14-.9-.77-1.18-.49-.14-1-.21-1.32-.77.28-.63.9-.49,1.39-.56,1.61-.42,1.4-.07,1.61-1.68.35-2.37,1.26-5.37,1.54-7.75a75.74,75.74,0,0,1,1.81-9.64,47.48,47.48,0,0,0,1.19-6.14c.35-2.1.7-4.19,1-6.22a2.84,2.84,0,0,0-.07-1.53c-.14-.49-.21-1.19.49-1.47s1.39-1.12,2.23-.63A3.52,3.52,0,0,0,291.49,454.07ZM288,465.8a13.2,13.2,0,0,1-.62,4.33c-.49,1.75-.28,3.63-.91,5.38a27.19,27.19,0,0,0-1.12,5.38c-.28,2.37-.7,4.75-1.12,7.12,2.31-.14,4.82-.21,7.06-.35a4,4,0,0,0,1.25-.28c1.05-.21,1.12-.35.77-1.32-.63-1.61-.84-3.36-1.33-5-.41-1.4-.48-2.94-1-4.4a24.47,24.47,0,0,1-1.19-5.45,25,25,0,0,0-1.4-6.14C288.06,465.31,287.92,465.59,288,465.8Zm11,11.11a6.8,6.8,0,0,0-.84-3.21C297.56,474.25,298.82,476.49,299,476.91Z"/>
      <path class="cls-6" d="M329.34,455.19l2,.7a4.7,4.7,0,0,1,3.29,5.58c-.28,1.4-.42,2.87-1.47,4a25.42,25.42,0,0,1-4.4,4.26c-.7.49-1.47.91-2.17,1.4-.35.21-.83.28-.9.84a.5.5,0,0,1-.56.49c-1.19-.07-1.68,1-2.59,1.4-.42.2-.35.9-.84,1.25,2.1.14,4.2.28,6.36.49a17.34,17.34,0,0,1,5,1,19,19,0,0,1,6.07,3.84,3.16,3.16,0,0,1,.7,3,15,15,0,0,1-1.53,3.84c-1.19,2.45-3.08,4.12-4.61,6.08a27.49,27.49,0,0,1-4.4,4.54c-.63.49-1.26.84-1.89,1.26A71.58,71.58,0,0,1,321.1,504c-1.19.69-2.17,1.46-3.43,2.3a9.61,9.61,0,0,1-.34-1.26c-.07-.35-.14-.63-.49-.7-1,0-1.33-.69-1.61-1.46-.07-.07-.14-.21-.28-.35-.91.49-1.12,1.95-2.58,2l-.28-1.95-1-7c.07-.28,0-.63.07-.91.7-2.45.49-5,.49-7.41,0-3,0-5.93-.07-8.94l-.21-8a10.07,10.07,0,0,1,.21-2.86,6.48,6.48,0,0,0,.21-2.31c.07-1.81.07-3.63.14-5.37-.07-.91-.14-1-1-1.12a4.7,4.7,0,0,0-2,.21c-.55.21-.9-.14-1.11-.63s-.21-.77-.28-1.26a.86.86,0,0,1,.7-1c.62-.07,1.25-.28,1.88-.35l11.39-1.47A16.59,16.59,0,0,1,329.34,455.19Zm-9.64,4.26c-.07,3.35,0,6.84-.28,10.19a3.94,3.94,0,0,0-.07,2c1.4-.56,2.65-1,3.28-2.24a1.34,1.34,0,0,1,.49-.34c2.8-2.1,4.33-5,6.22-7.83.63-1,.28-1.6-.84-1.74a9.45,9.45,0,0,1-3.84-1,6.12,6.12,0,0,0-4.19-.07C319.91,458.61,319.63,458.75,319.7,459.45Zm-.21,19.13c.42.35,1.12,0,1.19.63-.28.42-.84.21-1.26.42a26.92,26.92,0,0,0,.07,4.75c-.07,1.61.21,3.21.21,4.82s.21,3.14.35,4.68a35.1,35.1,0,0,0,.35,4.68,26,26,0,0,1,3.84-2.73,1.37,1.37,0,0,0,1-1,8.31,8.31,0,0,1,.56-1.12c1.25-2.31,2.79-4.33,3.84-6.77.49-1.33.9-2.66,1.46-4,.49-1,.49-1.25-.56-2.23a2.72,2.72,0,0,0-1.6-.84,17.43,17.43,0,0,0-5-.35,1.71,1.71,0,0,1-1.26-.56,28.24,28.24,0,0,0,5.45.14,1.17,1.17,0,0,0-1.54-.56,9.09,9.09,0,0,1-3.35-.49A6.53,6.53,0,0,0,319.49,478.58Z"/>
      <path class="cls-6" d="M351.55,454.28a16.32,16.32,0,0,1,.62,4.82,25.75,25.75,0,0,0,.35,5.17,47,47,0,0,1,0,6.28c-.07,2-.21,4.05-.28,6.08a45.5,45.5,0,0,1-.56,6.21,22.55,22.55,0,0,0,0,4.19l.21,4a9,9,0,0,0,.42,2.44c.56,1.61,1.05,3.28,1.68,4.82a17.05,17.05,0,0,0,1.61,2.37,1.87,1.87,0,0,0,2,1.05,3.72,3.72,0,0,0,2.45-.49,6.24,6.24,0,0,0,2.79-5.52,47.58,47.58,0,0,1,.42-6.35,3.51,3.51,0,0,0,.07-1.19,59.41,59.41,0,0,1,.49-8.66,19.78,19.78,0,0,0-.21-4.54,39.53,39.53,0,0,1-.21-7.61c.07-1.89-.14-3.7-.21-5.59,0-.91-.28-1.74.42-2.58.21-.28.07-1,.07-1.4s0-.91.63-1c.9-.07,1.25.07,1.46.77A3.1,3.1,0,0,1,366,459v2.09c1-1.53-.14-3.28.42-4.95.35-.07.56.07.56.34a2.09,2.09,0,0,1,.07.91c-.21,2.1.14,4.12,0,6.22a19.39,19.39,0,0,1-.14,2,15.79,15.79,0,0,0,0,3.15,46.17,46.17,0,0,1,.56,7,81.1,81.1,0,0,0-.35,8.24c.14,2.66-.07,5.31-.14,8a17,17,0,0,1-.56,3.29,4,4,0,0,0,0,2.23,5.69,5.69,0,0,1-1.47,5.1,2.55,2.55,0,0,1-1.6.84,14.87,14.87,0,0,0-2.52.7,3.76,3.76,0,0,1-1.53.34c-.21-.07-.56-.13-.7.14-.35.77-1.05.56-1.61.49a4,4,0,0,0-2,.07,6.48,6.48,0,0,1-4.4-1c-1.33-.77-2.59-1.68-3.91-2.45-1.82-1.05-2.52-2.86-2.94-4.89-.14-.91-.28-1.88-.49-2.79-.14-.63.21-1.19.14-1.82a87.29,87.29,0,0,1,0-9.57c.14-3.7.07-7.4-.14-11.1a67.51,67.51,0,0,1,.49-10.62c.14-1.32.42-2.65.49-4,.07-1.53.56-1.95,1.89-2.3a.67.67,0,0,1,.63,0c.49.49,1.11.35,1.67.28s.91.21,1.05-.56a2.12,2.12,0,0,1,1.26-.63A.64.64,0,0,1,351.55,454.28Z"/>
      <path class="cls-6" d="M371.59,496.6c-1,.42-1.4-.84-1.68-1.46C371,495.21,371.1,496,371.59,496.6Zm17.25-42.39a4.09,4.09,0,0,1,3.14,2.93l1.26,4c.42,1.12,0,2.17-.14,3.22-.07.49-.77.49-1.05,1-.28.7-.77,1.33-1.12,2-.42-.14-.35-.63-.63-.84-.48.14-.21.77-.62,1-.07.07-.14.07-.21-.07a6.08,6.08,0,0,1-1.4-5,5.7,5.7,0,0,0-.21-2.86c-.35-1.33-2.17-2.94-3.42-2.45-.7.21-1.4.56-2.1.84a3.55,3.55,0,0,0-1.53,1.82c-.35.7-.63,1.95-1.05,2.58-.7.77-.7,2.79.14,3.42,2.09,1.75,3.49,4.05,5.1,6.08a27.7,27.7,0,0,0,4.33,4.33,23.77,23.77,0,0,1,3.42,4,10,10,0,0,0,1.33,1.68c1.67,1.6,1.6,3.84,2.23,5.93a19.61,19.61,0,0,1,.35,4.54,1.9,1.9,0,0,1-.84,1.89c-.42.21-.35.56-.42.91a14.43,14.43,0,0,1-2.09,5,2.48,2.48,0,0,1-1.75,1.26,1.47,1.47,0,0,0-.77.49,7.52,7.52,0,0,1-2.72,2c-.28.14-.56.35-.84.21a2.54,2.54,0,0,0-2.23.34c-2.1,1.19-5.59.28-8.59-1.53-.28-.21-4.4-4.12-4.54-4.33-1.47-2,2.23,1.67.83-.49a3.76,3.76,0,0,1-.55-2c0-.83-.7-1.25-1-1.88-.14-.28-.49-.42-.56-.84.28-.21,1-.56,1.4-.14.56.63.69.28,1.11.49s.49.42,1.05.84c.77.63.91,1.25,1.4,1.81a5.21,5.21,0,0,0,2.51,1.68c2.45,1,4.89,3.07,7.06.84a6.1,6.1,0,0,0,1.6-4.61,24.92,24.92,0,0,0-.84-5.17,2.55,2.55,0,0,0-.48-1.05c-2.66-3.7-4.82-6.84-8.18-9.78a14.07,14.07,0,0,1-4.47-6,29.82,29.82,0,0,1-1.11-3.21,4,4,0,0,1,.07-1.82,59.73,59.73,0,0,1,1.6-5.94,13.35,13.35,0,0,1,5.31-6.28,3.11,3.11,0,0,1,2.38-.49c1.25.21,2.44-.28,3.7-.42A14,14,0,0,1,388.84,454.21Zm-7.48,25c.21-.07-.55-1.53-1-2.09-.7-1-1.47-1.26-1.61-1.75-1-.63-1.74-1.53-2.86-1.81A24.88,24.88,0,0,0,381.36,479.21Z"/>
      <path class="cls-6" d="M403.78,455.61c.14.21.21.21.42.21,1.05-.21,1.75.56,2.52,1a2,2,0,0,1,1,1.61c.07,1.47.07,2.86,0,4.26v.42c.21,2.51-.07,5.1.35,7.68a60.81,60.81,0,0,1,1,9.5,1.18,1.18,0,0,0,.28.84c1.54-.21,3.14-.49,4.75-.77.07,0,.14,0,.14-.07.84-1.12,2.09-.63,3.21-.84H418c1.33-.14,1.19-.21,1.54-1.46.42-1.54-.14-3,0-4.54.49-4.82.07-9.64.21-14.53a18.18,18.18,0,0,0-.21-1.82c-.07-.42,0-.9.35-1,.62-.21.76-.84,1.46-.84s.7.56.77,1a17.44,17.44,0,0,1,.42,3.35,8.73,8.73,0,0,0,.07,1.39c.14,1.61.35,3.22.35,4.82s0,3.22.21,4.89c0,.14.14.28.49.35.14-3.91-.21-11.31-.21-12.15,0-1.61,1.25,1.89,1.25,3.07.14,2.59.21,5.1.49,7.62,0,.55-.14,2.3-.07,2.86.07,2.44-.07,4.89.21,7.33a18,18,0,0,1-.07,4.75c-.07.42.21.84.28,1.26a22.43,22.43,0,0,1,.28,5.72v.77a19.64,19.64,0,0,1,.42,4.54c.07.84-.14,1.75-.07,2.66a2.13,2.13,0,0,1-.84,1.53,3,3,0,0,0-.83,1.47c-.14.35.69.42.2.77a4.8,4.8,0,0,1-1.74,1.25,6.17,6.17,0,0,0-1.4.63,2.29,2.29,0,0,1-1.19-2.58,1,1,0,0,0,.07-.63,28.85,28.85,0,0,1-.27-5.94c.06-1.18-.28-2.37-.21-3.56a32.91,32.91,0,0,0-.21-3.7,2,2,0,0,1,.42-1.95.87.87,0,0,0,.06-.35c-.83-.63-.41-1.47-.48-2.17-.07-.35-.21-.56-.56-.56a17.06,17.06,0,0,0-1.89.07,60,60,0,0,0-7.05.28,2,2,0,0,0-.63.14,3.22,3.22,0,0,0,0,1.82,6.35,6.35,0,0,1,0,2.3,1,1,0,0,0,.07.63,5.14,5.14,0,0,1,0,2.31,19.69,19.69,0,0,0-.28,3.91c0,1,.14,1.74.07,2.79a6.67,6.67,0,0,0-.07,2c.35.84,0,1.68.14,2.52.07.42-.21.63-.63.63-1.4.14-3.77,1.05-4.19-.07-.07-.21-.42-.14-.63.49-.35,1-1.88.56-2.93.63a2.52,2.52,0,0,1-.42-1.4c0-2-.21-3.84-.28-5.73-.07-1.4.07-2.79.07-4.12-.14-2.16,0-5,0-7.19,0-.7-.14-.7-.84-.91s-1.67-.14-2.16-1a6.21,6.21,0,0,1,1.81-.63c.91-.28,1.12-.62,1.05-1.53a80,80,0,0,1-.28-9.15c0-4.54.07-9.08,0-13.69a3.09,3.09,0,0,0-.14-1.4,2.5,2.5,0,0,1,.07-1.88c.21-.42.35-.56.7-.63A3.69,3.69,0,0,1,403.78,455.61Z"/>
      <path class="cls-6" d="M457.63,455.54a1.74,1.74,0,0,1-.35,1.11c-.84,1.33-1.82,2.73-2.8,4s-1.81,2.73-2.65,4.06a9.7,9.7,0,0,1-.7,1.11,5.85,5.85,0,0,0-1,1.68c-.08.56-.49,1-.63,1.61-.14,1-1,1.67-1.75,2.3a2.74,2.74,0,0,0-.56,3.42c.77,2,1.68,4.05,2.52,6.15a9.23,9.23,0,0,1,.62,2c.07.77.63,1.26.91,1.89a70.41,70.41,0,0,0,4.4,9.5,29.39,29.39,0,0,1,2.52,5.45,1.79,1.79,0,0,1,.21.83A6,6,0,0,0,459,503c.21.35.56.7.35,1.26-1-.28-1.81-.28-2.3.9-.07.21-.28-.07-.42,0a16.35,16.35,0,0,1-1.82.28c-1.11.35-2-.35-2.79-1a8.36,8.36,0,0,0-2-1.46c-.28.21.06.63-.28.91a2.53,2.53,0,0,1-1.47-1.68c-.84-2.44-1.61-5-2.31-7.47s-1.6-5-2.37-7.41a70.89,70.89,0,0,1-2.17-7.82c0-.28-.2-.49-.34-.84-.63.42-.56.91-.56,1.47.21,2.24.42,4.54.56,6.84.14,3.71.55,7.34.41,11A3,3,0,0,1,441,500c-.21.28-.14.63-.28,1-.14.56-.07,1.26-1.05,1.26-.63,0-.35.91-.7,1.4-.77-.49-1.47.14-2.16.35a2.33,2.33,0,0,1-3.15-1.68c-.21-1.4-.35-2.86-.42-4.26-.21-3.35-.49-6.64-.76-9.92-.21-2.86-.35-5.73-.42-8.66,0-3.28-.21-6.56-.21-9.92a46.35,46.35,0,0,1,.21-8.24,13.33,13.33,0,0,0-.07-1.67c-.07-.56-.28-1.33-.07-1.68.62-.7,1.18-1.33.83-2.37-.07-.07.21-.28.42-.21a2.14,2.14,0,0,0,1.61-.35,3.91,3.91,0,0,1,3.07-.14,1.64,1.64,0,0,1,1.4,1.47,29.65,29.65,0,0,1,.49,4.95,13.19,13.19,0,0,0,.14,2.38,26.13,26.13,0,0,1,.14,4.68c.07,2.3.21,4.61.35,7.05a8.06,8.06,0,0,0,1.74-2.09c1.26-1.68,2.45-3.5,3.64-5.24,2.16-3.21,4.46-6.36,6.91-9.36A22.89,22.89,0,0,0,455,456c.35-.49,1-.56,1.4-1.12S457.56,454.91,457.63,455.54Z"/>
      <path class="cls-6" d="M473.55,454.07c.42-.14,1.05,1.75,1.19,2.37,0-1.74.27-3,1.25-.34a35.4,35.4,0,0,1,1.47,3.84c.35,1.53,1,3,1.19,4.54.14,1.18.28.83.83,1.88,1,1.75.91,3.77,1.4,5.66a85.06,85.06,0,0,0,3.14,9.15,39.21,39.21,0,0,1,1.75,7.12c.14.63,0,1.33.14,2a63.56,63.56,0,0,0,2.58,7.68,10.52,10.52,0,0,1,1.05,5c-.07.84-.14,1.74-1.32,1.88a.62.62,0,0,1-.63.77c-.35-.35-.84-.42-1.19-1.12-.14-.27-.63-.14-.7-.48-.28-.77-1.26-1-1.4-.35-.28,1.25-1.6.49-2.44.69a.7.7,0,0,1-1.05-.55c-.77-2.31-1.53-4.54-2.09-6.78-.49-1.88-1.47-3.63-1.82-5.59a1.1,1.1,0,0,0-1.26-.9c-2.72.14-4.82-.07-7.61.28-.63.07-1.81-.21-2.23.28s-.35,1.18-.56,1.81a38.28,38.28,0,0,0-.84,3.84l-.56,4.82a15.16,15.16,0,0,1-.28,1.75c-.14.84-.49,1-1.54.77-.27-.07-.76-1.61-1-.49-.14.63-.7-1.12-.63-1.82a58.29,58.29,0,0,1,1.67-9.15l.21-1.05c.14-1,.14-.9-.76-1.18-.49-.14-1.05-.21-1.33-.77.28-.63.91-.49,1.4-.56,1.6-.42,1.39-.07,1.6-1.68.35-2.37,1.26-5.37,1.54-7.75a77.53,77.53,0,0,1,1.81-9.64,47.48,47.48,0,0,0,1.19-6.14c.35-2.1.7-4.19,1-6.22a2.84,2.84,0,0,0-.07-1.53c-.14-.49-.21-1.19.49-1.47s1.4-1.12,2.23-.63A3.52,3.52,0,0,0,473.55,454.07Zm-3.49,11.73a13,13,0,0,1-.63,4.33c-.49,1.75-.28,3.63-.91,5.38a27.19,27.19,0,0,0-1.12,5.38c-.28,2.37-.7,4.75-1.11,7.12,2.3-.14,4.81-.21,7-.35a4.09,4.09,0,0,0,1.26-.28c1-.21,1.11-.35.76-1.32-.62-1.61-.83-3.36-1.32-5-.42-1.4-.49-2.94-1-4.4a24.47,24.47,0,0,1-1.19-5.45,25.44,25.44,0,0,0-1.39-6.14C470.13,465.31,470,465.59,470.06,465.8Zm11,11.11a6.8,6.8,0,0,0-.84-3.21C479.62,474.25,480.88,476.49,481,476.91Z"/>
    </g>
    <g>
      <path class="cls-6" d="M318.71,408.5a29.37,29.37,0,0,1,5.55-.49c3,0,5,.52,6.46,1.71a5,5,0,0,1,1.95,4.16,5.58,5.58,0,0,1-4,5.16v.07a6.07,6.07,0,0,1,4.85,5.9,6.39,6.39,0,0,1-2,4.72c-1.64,1.5-4.3,2.19-8.14,2.19a35.78,35.78,0,0,1-4.71-.27Zm3,9.63h2.76c3.21,0,5.09-1.67,5.09-3.94,0-2.76-2.09-3.84-5.16-3.84a12.64,12.64,0,0,0-2.69.21Zm0,11.28a15.54,15.54,0,0,0,2.55.14c3.14,0,6-1.15,6-4.57,0-3.21-2.76-4.54-6.08-4.54h-2.51Z"/>
      <path class="cls-6" d="M340.67,408.18v23.54h-3V408.18Z"/>
      <path class="cls-6" d="M345.56,428a10.74,10.74,0,0,0,5.45,1.54c3.11,0,4.92-1.64,4.92-4,0-2.2-1.26-3.46-4.43-4.68-3.84-1.36-6.22-3.35-6.22-6.67,0-3.67,3-6.39,7.61-6.39a10.7,10.7,0,0,1,5.2,1.15l-.83,2.48a9.37,9.37,0,0,0-4.47-1.12c-3.21,0-4.44,1.93-4.44,3.53,0,2.2,1.44,3.28,4.68,4.54,4,1.54,6,3.46,6,6.91,0,3.63-2.69,6.78-8.24,6.78a12.16,12.16,0,0,1-6-1.51Z"/>
      <path class="cls-6" d="M367.66,410.77h-7.15v-2.59h17.42v2.59h-7.19v21h-3.08Z"/>
      <path class="cls-6" d="M380.55,408.5a31.19,31.19,0,0,1,5.83-.49c3.25,0,5.34.59,6.81,1.92A5.85,5.85,0,0,1,395,414.4a6.17,6.17,0,0,1-4.44,6v.11c1.82.63,2.9,2.3,3.46,4.75a37.52,37.52,0,0,0,1.82,6.46h-3.15a31.63,31.63,0,0,1-1.57-5.63c-.69-3.24-2-4.46-4.71-4.57h-2.86v10.2h-3Zm3,10.72h3.1c3.25,0,5.31-1.78,5.31-4.47,0-3-2.2-4.37-5.41-4.4a12.42,12.42,0,0,0-3,.28Z"/>
      <path class="cls-6" d="M419.55,419.71c0,8.1-4.92,12.39-10.93,12.39-6.21,0-10.58-4.82-10.58-11.94,0-7.47,4.65-12.36,10.93-12.36S419.55,412.72,419.55,419.71Zm-18.26.38c0,5,2.72,9.53,7.51,9.53s7.54-4.43,7.54-9.77c0-4.68-2.45-9.57-7.51-9.57S401.29,414.92,401.29,420.09Z"/>
    </g>
    <line class="cls-7" x1="196.64" y1="443.47" x2="540.63" y2="443.47"/>
  </g>
</svg>
