<?xml version="1.0" encoding="utf-8"?>
<!-- Generator: Adobe Illustrator 25.1.0, SVG Export Plug-In . SVG Version: 6.00 Build 0)  -->
<svg version="1.1" xmlns="http://www.w3.org/2000/svg" xmlns:xlink="http://www.w3.org/1999/xlink" x="0px" y="0px"
	 viewBox="0 0 260 260" style="enable-background:new 0 0 260 260;" xml:space="preserve">
<style type="text/css">
	.st0{fill:#FFFFFF;}
	.st1{fill:#D1CFD1;}
	.st2{fill:#D1D0D1;}
	.st3{fill:none;stroke:#FFFFFF;stroke-width:2;stroke-miterlimit:10;}
	.st4{fill:#FDFDFD;}
	.st5{font-family:'Active-Regular';}
	.st6{font-size:24px;}
	.st7{font-family:'MyriadPro-Regular';}
	.st8{font-size:12px;}
	.st9{fill:none;stroke:#010202;stroke-miterlimit:10;}
</style>
<g id="background">
	<g>
		<circle class="st0" cx="130" cy="130.2" r="127.5"/>
		<g>
			<g>
				<g>
					<g>
						<path class="st1" d="M259.9,129.2c0,1.2,0.4,0.8,0.5,1C260.2,128.2,259.8,129.3,259.9,129.2z"/>
						<polygon class="st1" points="257.3,109.6 257.6,109.9 256.6,107.1 						"/>
						<path class="st1" d="M253.1,91.6c-0.2,1.9,2,6.4,2.4,9.7l0,0.6l0.9,1.3c-0.5-1.9-1.1-4.2-1.7-6.2
							C254,94.9,253.4,93,253.1,91.6z"/>
						<path class="st1" d="M251.2,81.8c0,0.7-1-1.9,0.8,2.2c-0.1-0.2-0.1-0.3-0.1-0.4C251.8,83.2,251.5,82.7,251.2,81.8z"/>
						<path class="st1" d="M251.9,83.5C252.6,85.4,251.6,82.3,251.9,83.5L251.9,83.5z"/>
						<path class="st1" d="M248.2,75.2l1.3,2.3c-0.1-0.6-1-2.7-0.5-2C247.8,73.2,247.8,73.8,248.2,75.2z"/>
						<path class="st1" d="M246.7,73.3c0.2,0.4,0.5,0.8,0.7,1.2C247.3,74.2,247.2,73.8,246.7,73.3z"/>
						<path class="st1" d="M248.8,76.9l-1.4-2.5c0.1,0.4-0.1,0.5,0.6,1.2C247.7,75.4,248.1,75.9,248.8,76.9z"/>
						<path class="st1" d="M249.3,78.4c0.5,1.4,1,3.2-0.2,0.9c1,2.3,1.5,3.2,1.5,3C250.7,82,250.4,80.6,249.3,78.4z"/>
						<path class="st1" d="M252.1,90.9c0.1,0.6,0.3,1.2,0.4,1.9l0.7,1.5c-0.2-0.4-0.4-1.3-0.6-2.1C252.4,91.5,252.2,90.9,252.1,90.9
							z"/>
						<path class="st1" d="M240.8,60.9c-0.2-0.1,0.1,0.9,0.1,1.2c0.4,0.5,0.8,1,1.1,1.5C241.7,62.7,240.7,61.1,240.8,60.9z"/>
						<path class="st1" d="M240.9,62.1l-1.8-2.3C240.5,62,240.8,62.3,240.9,62.1z"/>
						<path class="st1" d="M245.8,73.2c0.9,1.3,1.6,2.7,2.5,4c-0.9-1.6-1.8-3.2-2.9-4.8L245.8,73.2z"/>
						<path class="st1" d="M234.7,51.8c0.4,0.4,0.8,0.7,1.2,1.1l-1.1-1l-1.1-1L234.7,51.8z"/>
						<path class="st1" d="M230.1,46.2c1,0.7-0.7-1.6,0.3-0.7c-1.3-1.5-2.6-2.6-3.8-3.6C227.7,43,228.8,44.4,230.1,46.2z"/>
						<path class="st1" d="M224.5,40.3c0.6,0.5,1.3,1.1,2,1.6C225.9,41.3,225.2,40.8,224.5,40.3z"/>
						<path class="st1" d="M236.5,55.8c-0.1-0.2-0.1-0.7-1-2.1l0.3,1.2C236,55.1,236.3,55.4,236.5,55.8z"/>
						<path class="st1" d="M235.9,54.9L235.9,54.9c-0.7-1-1.2-1.7-1.4-2C234.6,53.1,235.1,53.7,235.9,54.9z"/>
						<path class="st1" d="M236.7,56c-0.1-0.1-0.1-0.1-0.2-0.2C236.5,55.9,236.5,55.9,236.7,56z"/>
						<path class="st1" d="M242.6,66.4c-1-1.3-3-4.2-1.6-1.1C241.9,66.2,241.1,64.5,242.6,66.4z"/>
						<path class="st1" d="M237,57.4c0.6,0.8,1,1.7,1.6,2.6c0.1-0.1-0.1-0.7,0.5,0C238.4,59.1,237.7,58.3,237,57.4z"/>
						<polygon class="st1" points="236.1,56.3 237,57.4 236.4,56.5 						"/>
						<path class="st1" d="M227.8,44.4c-0.5-0.4-1-0.9-1.5-1.4c-0.5-0.5-1-1.1-1.6-1.6c1.2,1.3,2.3,2.7,3.4,4
							C228.3,45.4,229,45.8,227.8,44.4z"/>
						<path class="st1" d="M231.8,49.4c-0.1-0.1-0.1-0.2-0.2-0.2C231.7,49.4,231.8,49.5,231.8,49.4z"/>
						<path class="st1" d="M213.1,30.4c0,0.1,0.1,0.1,0.1,0.2c0,0,0.1,0,0.1,0L213.1,30.4z"/>
						<path class="st1" d="M228.2,45.6c0.8,1,1.4,1.6,2,2c-0.7-0.7-1.4-1.5-2.1-2.3C227.9,45.2,227.9,45.3,228.2,45.6z"/>
						<path class="st1" d="M221.3,37.2c0.4,0.5,0.9,1.1,1.4,1.8C222.4,38.4,221.5,37.3,221.3,37.2z"/>
						<path class="st1" d="M231.4,48.8c0,0,0.1,0.1,0.1,0.1C231.4,48.5,231.4,48.6,231.4,48.8z"/>
						<path class="st1" d="M231.4,48.8c-0.5-0.5-0.9-0.8-1.3-1.2c0.5,0.6,1,1.1,1.5,1.6C231.5,49.1,231.5,48.9,231.4,48.8z"/>
						<path class="st1" d="M207.7,29.6c0.2-0.1,1,0.3,2.1,1c0.5,0.3,1.1,0.8,1.6,1.2c0.5,0.5,1.1,1,1.6,1.6c2.4,1.6,1.8-0.5,0.4-2.8
							c-0.2,0.1-0.2,0.2-2.7-1.5c0.7,0.8,4.7,4.6,2.6,3.3c-1.5-1.2-2.2-1.7-2.5-2.1c-0.4-0.4-0.5-0.7-1.2-1.4
							c0.5,0.7-0.6,0.1-1.8-0.6c-1.2-0.7-2.5-1.3-2.4-0.8c1,0.6,1.9,1.2,2.9,1.9C208.1,29.5,207,28.9,207.7,29.6z"/>
						<path class="st1" d="M217.5,34.4l0.9,0.8c-1-1-1.6-1.8-2.8-3.2c-1.7-1.2-2.1-1.4-2.3-1.4c1.5,1.3,3.1,2.6,4.5,4L217.5,34.4z"
							/>
						<path class="st1" d="M222.4,39.1c-0.9-0.4-3.2-2.3-2.3-0.7c2.6,2.5,2,1.5,3.6,2.9C219.7,37.2,225.1,42.3,222.4,39.1
							c0.8,0.8,1.6,1.6,2.3,2.3c-0.7-0.8-1.3-1.6-1.9-2.3c0,0,0,0.1,0.1,0.1l0,0l0,0c0.1,0.2,0.2,0.3,0,0.1c0,0-0.1-0.1-0.1-0.1
							C222.6,39.1,222.5,39.1,222.4,39.1c-1.1-1.3-0.1-0.3,0.3,0.1c0,0,0.1,0,0.1,0l0,0c-1.4-1.4-2.9-2.6-4.4-3.9
							C219.3,36.1,220.4,37.1,222.4,39.1z"/>
						<path class="st1" d="M238.6,63.2c-0.1-0.2,0-0.2,0-0.2C238.4,62.7,238.3,62.6,238.6,63.2z"/>
						<path class="st1" d="M237.6,61c0.3,0.3,0.6,0.5,1.3,1.7c0.5,1.1-0.2,0.1-0.3,0.2c0.5,0.6,1.8,2.3,0.6,0l-0.3-0.3
							c-1.1-2-2.3-4.8-2-4.5C237,58.9,237.1,59.5,237.6,61z"/>
						<path class="st1" d="M230.4,49.6c-1-1.2-2.2-2.4-3.3-3.6l1.3,2.1l0.1-0.2C230.2,50.1,230,49.5,230.4,49.6z"/>
						<path class="st1" d="M212.8,29.9l0.8,0.1c-0.8-0.5-1.7-0.8-2.6-1.3L212.8,29.9z"/>
						<path class="st1" d="M207.8,26l0.4-0.2c-0.5-0.3-1-0.5-1.5-0.8L207.8,26z"/>
						<path class="st1" d="M22.3,193.9l0.8,1.1C22.8,194.5,22.5,194.2,22.3,193.9z"/>
						<path class="st1" d="M17.6,185.2l-0.3-0.1C17.6,185.4,17.8,185.5,17.6,185.2z"/>
						<path class="st1" d="M61.6,19.7c-1.9,0.8-4.2,1.6-3.8,1.8l0.8,0C59.8,20.6,60.8,20.1,61.6,19.7z"/>
						<path class="st1" d="M5.1,105.1c0.1-0.2,0.2-0.4,0.2-0.6c0-0.5-0.1-1-0.1-1.4C5.2,103.7,5.1,104.4,5.1,105.1z"/>
						<path class="st1" d="M6.6,106.9l-0.7,2.6C6,108.9,6.3,108,6.6,106.9z"/>
						<path class="st1" d="M59.5,233c0.5,0.2,1,0.4,1.6,0.5C59,232.1,59.8,232.9,59.5,233z"/>
						<path class="st1" d="M148.5,1.6c-1.8-0.4-3.2-0.6-4.4-0.8C146.2,1.3,147.9,1.9,148.5,1.6z"/>
						<path class="st1" d="M16.3,192.8c0.5,0.7,0.8,1,0.8,0.9C16.7,192.9,16.4,192.5,16.3,192.8z"/>
						<path class="st1" d="M138.9,0.4c0.3,0.1,0.6,0.1,0.9,0.2c1.3,0,2.6,0,4.2,0.3C142.5,0.4,140.7,0.2,138.9,0.4z"/>
						<path class="st1" d="M233.7,200.1c0.1-0.1,0.2-0.2,0.3-0.3C233.9,199.7,233.8,199.9,233.7,200.1z"/>
						<path class="st1" d="M258.2,147.4c0,0.6-0.2,1.5-0.3,2.4C258,149.4,258.1,148.7,258.2,147.4z"/>
						<path class="st1" d="M186.1,12.7C187.4,13.2,186.3,12.7,186.1,12.7L186.1,12.7z"/>
						<path class="st1" d="M191.1,17.1c-0.3-0.1-0.5-0.1-0.6-0.1C190.7,17,190.9,17.1,191.1,17.1z"/>
						<path class="st1" d="M125.6,2.9c0,0-0.1,0-0.1,0C125.9,2.9,125.8,2.9,125.6,2.9z"/>
						<path class="st1" d="M187.9,13.7c-0.4-0.3-0.9-0.6-1.5-0.9C186.6,13,187.1,13.3,187.9,13.7z"/>
						<path class="st1" d="M187.7,13.4c0.4,0.2,0.7,0.4,1,0.6C188.9,14,188.8,13.9,187.7,13.4z"/>
						<path class="st1" d="M184.4,11.9c0.7,0.3,1.3,0.6,2,0.9c-0.2-0.1-0.3-0.2-0.2-0.2C185.8,12.5,185.3,12.3,184.4,11.9z"/>
						<path class="st1" d="M146.6,255.3c0.1,0,0.2,0,0.3,0C148.1,254.9,147.6,255,146.6,255.3z"/>
						<path class="st1" d="M38,44.9c0,0,0.1-0.1,0.1-0.1C38.1,44.8,38,44.8,38,44.9L38,44.9z"/>
						<path class="st1" d="M35.2,48.5c0.9-1.8,1.7-2.7,2.8-3.7c-0.7,0.1-1.3,0.2-2,0.3L35.2,48.5z"/>
						<path class="st1" d="M36.5,213.1l-1.8-2.7c3,2.6,4.7,4.8,3.1,2.2c-0.3,0.1-1-0.4-1.9-1.2c-0.9-0.9-1.9-2-2.9-3.3
							c-1-1.2-2-2.5-2.8-3.3c-0.8-0.9-1.4-1.5-1.8-1.4l-1-1.9c0.3,0.5,0.5,0.5,0.8,1c-1.9-3.8-2.6-2-5.4-6.6
							c-0.9-1.7-1.3-2.9-0.6-1.9l-2.4-3.5c-0.6-1.1-0.2-0.9,0.4,0.1c-1.1-1.8-2-3.7-3-5.6l0.1,0c-0.6-0.7-1.7-2.5-2.3-3.3
							c-0.5-1.6,0.5,0.7,0.5,0.2c-0.6-1-1.2-2.1-1.7-3.1c-0.1-0.7,0.2-0.5,0.6,0.3c0.5,0.7,1.1,1.9,1.6,3.1
							c-0.1-1.8-0.4-2.4-1.1-3.4c-0.6-1.1-1.4-2.5-2.3-6c0.4,1,0.9,2,1.4,3c0-1.1-0.4-2.3-0.7-3.6c-0.4-1.3-0.8-2.8-1.2-4.7
							c0,0.9,1.3,7.5-0.3,4c-0.2-1.1-0.7-2.4-1.6-4.3c0.5-0.2-0.2-2.1-0.9-4.5l0.7,0c-0.5-1.3-0.7-1.9-1-2.3
							c-0.2-0.4-0.5-0.7-0.8-1.5c-0.6-3-0.3-3.7,0-4.5c-0.8-4.8-0.2,3.5-1.3-2.2c-0.1-1-0.3-1.9-0.4-2.8c-0.1-0.9-0.2-1.8-0.4-2.7
							c-0.3-1.8-0.8-3.7-1.1-6.1c0-2.9,0.4,0.5,0.5-0.6l-0.7-2.5c0-0.6,0.1-0.4,0.2-0.3c-0.3-2.1-0.7-0.1-0.9-3.5
							c-0.3-0.4-0.2-2.2,0.1-4.3c0.3-2.1,0.5-4.6,0.3-6.7c0.3-1,0.4,0.5,0.6,0.2c-0.1-5.7-0.1-4.9-0.2-9.6c0.3-1.3,0.6-2.6,1-3.9
							c-1,2.8-0.9-1-0.8-4.3c-0.4,1-0.8,1.8-1,2.4c0.2-1.8,0.4-3.5,0.7-5.3c0.2-0.6,0.3,0,0.4,0.9c0-0.4,0-0.7,0.1-1
							c0.7-1.8,0.8-0.7,0.8,0.6c-0.3,0.6-0.5,1.2-0.8,1.8c0.2,1.4,0.4,2.6,0.8,2.4c0-0.3,0-1,0.1-1.7c0,0.4,0.1,0.6,0.2,0.4
							c0.1-0.2,0-0.7,0.1-1.6l1-1l-0.2-0.3l1-3.3c0.3-1.1,0.7-2.2,1.1-3.2c0.1-1.2,0.3-2.4,0.4-3.6c0.2-1.2,0.4-2.4,0.6-3.8
							c0.1-0.7,0.3-1.3,0.4-2.1c0.2-0.7,0.4-1.4,0.6-2.2c0.5-1.5,0.9-3.2,1.7-5c-0.3,2,0.6,0.7,1.1,1.1c-0.7,0.8-1.2,2.3-1.7,3.9
							c-0.3,0.8-0.5,1.7-0.8,2.7c-0.3,0.9-0.5,1.9-0.9,2.8c0.7-2,0.9-1.4,0.8-0.9c0.5-2.3,1.3-4.6,2-6.9c0.4,0.3,0.9-1.3,1.9-2.9
							c-0.7,0.4-0.4-0.8,0.4-2.6c0.2-0.4,0.4-0.9,0.6-1.4c0.2-0.5,0.5-0.9,0.7-1.4c0.4-0.9,0.9-1.8,1.1-2.5c0.4,0,0.4,0.8-1.3,3.9
							c2.5-3.1,1.2-5.1,3.7-8.1c-0.4,0.8-0.7,1.1-0.7,1.5c0.4-1,1.2-2.5,2-3.6c0.7-1.1,1.4-1.8,1.2-1.3l-0.5,0.7
							c0.8-1.2,1.8-2.7,2.8-4.4c1.1-1.6,2.2-3.3,3.3-4.8c1.1-1.6,2.1-3,2.8-4.1c0.7-1.1,1.1-1.9,1.1-2.2c0.1,0,0.3,1.2,0.2,1.6
							c1.5-3.2,3-6.5,4.8-9.6c-0.1,1.2,3.6-0.1,0.6,3.6c0.5-0.5,1.1-1,1.7-1.7c0.7-0.7,1.4-1.6,2.4-2.6c-0.8,0.6-2.4,0.9-1.6-0.1
							c3.1-1.8,2-1.4,5.7-3.8c-1.2,0.8-0.8-1.1,1-2.5c-0.2,0.4,0.9,0.7,0.3,1.4l1.7-2.2c0.6-0.7,1.2-1.4,1.8-2.2
							c-1,1,0.4,0.9,1.6,0.4c-0.3,0.1,0.6-0.6,1.8-1.5c1.2-0.9,2.6-1.8,3.2-2.3l-2.1,1.1c2.6-1.7,3.6-3,4.7-4.1
							c0.5-0.6,1.1-1.2,1.8-1.8c0.7-0.6,1.6-1.4,3-2.1c-0.5,0.6-0.9,2.1,1.9,0.7c0.5-0.6,1.5-2.1,3.1-3.6c1.6-1.5,3.6-3.4,6.1-4.7
							l1.1-0.1c1.3-0.7,2.5-1.4,3.8-2c-1.1,0.8-3.1,2.6-5.3,4.2c-1.1,0.8-2.2,1.8-3.2,2.6c-1,0.8-2,1.6-2.8,2.2
							c2.2-0.8,0.8,0,3.8-1.6c1.2-0.3-1.5,1.3-2.4,1.8c2.4-1.2,4.8-2.4,7.3-3.4c-0.3-0.2,1-1,2.4-1.8c1.4-0.7,2.8-1.4,2.5-1.6
							c-2.7,1.2-5.2,2.7-7.8,4.1c-0.3-0.2,0.6-1.2,2.4-2.4c0.9-0.6,1.9-1.3,3.1-1.9c1.2-0.6,2.5-1.2,3.9-1.7
							c1.5-0.3-0.6,1.5-0.4,1.7c0.3-0.2,1.5-0.9,2.8-1.4c1.2-0.5,2.5-0.9,2.8-0.9L88.1,12c1.6-0.4,2.7-1,4-1.6
							c1.3-0.6,2.7-1.1,4.6-1.3c1.3-0.4,4-0.2,4.2-0.6c-2.3-0.3-3.3-2.5-2-3.4c0.2,0,2-0.2,3.9-0.5c1-0.1,2-0.2,2.8-0.2
							c0.9,0,1.6,0,2,0c2.3,0.2-3,2-1.1,2.2c0-0.2,1.2-0.6,1.7-0.8c1.4-0.1-0.5,0.7,2.5,0c0.4-0.7,6.1-0.7,1.3-0.8
							c1.5-0.3,2.3-0.3,3.1-0.4c0.9-0.1,1.8-0.1,3.5-0.2c-0.6-0.2,0.2-0.6,1.5-1.1c1.3-0.4,3.1-0.9,4.6-1c-0.2,0.2,0.5,0.4,0.8,0.5
							c1.5,0,2.9,0,4.2,0c1.3,0,2.4,0.1,3.6,0.2c1.2,0.1,2.3,0.1,3.5,0.2c1.2,0.1,2.5,0.2,3.9,0.4c0.5,0.2,3.2,0.6,2,0.8
							c0.8,0,1.6-0.2,3.4,0.1c3.3,1-3.9-0.4-1.4,0.6c0.3-0.3,4.6,0,7.1,0.2c-0.3-0.3-1.8-0.7-3.4-0.8c-1.7-0.1-3.6-0.2-4.8-0.2
							c0-0.4,1.2-0.7,3.1-0.8c0.9-0.1,2.1-0.1,3.4-0.1c1.3,0.1,2.7,0.2,4.2,0.4c2.4,0.3,2.9,0.6,2.9,0.8c0,0.1-0.5,0.2-0.1,0.2
							c2.2,0.5,3.8,0.8,5,1c1.2,0.2,2.2,0.3,3.1,0.4c0.9,0.1,1.7,0.2,2.8,0.4c1.1,0.2,2.3,0.7,4.1,1.4c2.7,1.5-0.2,1.1,0.3,1.6
							c-1.9-0.5-3.3-1.1-4.5-1.6c-1.3-0.5-2.4-0.9-3.6-1.3l3.1,1.1c-1.2-0.2-3.8-0.7-5.1-1.3c0.6,0.3,1.8,0.7,3.3,1.2
							c0.8,0.2,1.7,0.5,2.6,0.8c0.9,0.3,1.9,0.7,3,1c1,0.4,2.1,0.7,3.1,1.1c1,0.4,2.1,0.8,3.1,1.3c2.1,0.8,3.9,1.7,5.4,2.6
							c1.2,0.3,3.2,1,2.4,0.4l-2-0.8c-1.7-1.2,4,1.2,1.6-0.2c1.4,0.4,2.9,1,4.5,1.7c0.8,0.3,1.6,0.7,2.5,1.1c0.8,0.5,1.7,1,2.6,1.5
							l0.4,0.9c0-0.2-2.2-1.7-3.3-2.1c0.8,0.3,2.1,1.3,3.4,2.2c0.7,0.5,1.3,0.9,2,1.3c0.6,0.4,1.2,0.7,1.7,0.7
							c-0.7-0.6-1.5-1.3-2.3-1.9c1.4,0.6,2.9,1.4,4.5,2.1c0.8,0.4,1.6,0.8,2.4,1.3c0.8,0.5,1.5,1,2.3,1.6c-1-1.5-0.7-0.4-2.5-2.6
							c1.5,2-8.1-5.2-5.4-2.4c-1-1-1.9-1.7-3-2.4c-1.1-0.7-2.2-1.5-3.7-2.6c0,0.2,0.9,0.9-1.8-0.6c-0.2,0-0.5-0.1-0.7-0.2
							c-0.1,0-0.1-0.1-0.2-0.1c0.1,0,0.1,0.1,0.1,0.1c-0.1,0-0.1,0,0.1,0c0.6,0.4,1.1,0.8,1.3,1c-0.8-0.1-2.3-0.8-3.8-1.4
							c-1.5-0.6-3.1-1.2-3.9-1.5c-1.6-0.9,0.8,0.1,0-0.5c-0.8-0.2-1.6-0.5-2.4-0.6c-0.1-0.5-4.3-2.5-0.1-1.1l-3.7-1.5
							c-2.1-1-5.1-2.1-7.1-2.6c-1.8-0.6-4.7-0.8-3-0.7c-1-0.2-2-0.5-3-0.7l-3.1-0.6l0-0.1c-3-0.8-6.1-1.1-9.3-1.6
							c-3.2-0.3-6.5-0.8-10-1.4c-1,0-2.1-0.1-3.3-0.1c-1.2,0-2.6,0-4.3-0.1l-0.7-0.4c-1.3,0-3.3,0-5.1,0c-1.8,0-3.4,0-4,0.3
							c-0.7-0.2-1.9-0.3-3.3-0.2c-0.7,0-1.5,0.1-2.3,0.1c-0.8,0.1-1.6,0.2-2.5,0.3c-1.7,0.3-3.5,0.5-5.1,0.8
							c-1.6,0.3-3.1,0.6-4.2,0.8l-0.1,0.5c-1.6,0.2-3.1,0.7-4.7,1.1c-0.8,0.2-1.6,0.4-2.5,0.7C96.9,4.5,96,4.8,95,5.1l0.4,0.4
							c-1.6,0.7-3.7,1.1-6.1,1.8c-1.2,0.3-2.4,0.7-3.7,1.1c-1.3,0.4-2.5,0.9-3.8,1.4c0.3-0.3,1.6-0.8,2.5-1
							c-1.6,0.4-3.2,0.9-4.7,1.5c-1.5,0.7-3,1.5-4.5,2.3c-1.5,0.8-2.9,1.7-4.3,2.4c-1.4,0.8-2.8,1.4-4.1,2c-1.2,0.9-2.1,1.3-3.1,1.8
							c0.1-0.1,0.2-0.1,0.3-0.2c-0.1,0.1-0.3,0.2-0.5,0.3c-0.6,0.2-1.2,0.5-1.9,0.9c0.6-0.2,1.1-0.5,1.6-0.7c-1,0.6-2.4,1.6-3.7,2.6
							l-0.9,0c-0.1,0.1-0.2,0.1-0.3,0.2c-1.5,0.7-1,0.9,0,0.7c-0.7,0.5-1.2,1.1-1.7,1.5c-0.8,0.1-1.6,0.8-2.5,1.5
							c-0.5,0.4-0.9,0.7-1.4,1c-0.5,0.3-0.9,0.6-1.4,0.7c-0.3,0.5-1.9,1.9-3.5,3.2c-1.5,1.5-2.9,2.9-2.9,3.5c-0.1,0-0.5,0.2,0.2-0.4
							c-1.5,1.1-2.9,2.3-3.9,3.7l-1,0.1L38.9,39l-1.1,1.7c-2,1.5-2.8,2.1-1.5,0c-0.9,1.2-1.5,2-2,2.7c-0.5,0.6-0.8,1.1-1.2,1.5
							c-0.7,0.9-1.3,1.6-2.6,3.8l-0.2-0.4c-1.1,1.4-2.4,4-3.4,4.6c-0.8,0.7-1.8,2.1-3.2,3.8c-0.7,0.9-1.4,1.9-2.1,3
							c-0.7,1.1-1.5,2.3-2.2,3.5c-3,4.9-6,10.7-8.4,15.3c1-0.7,0.3,0.4-0.4,1.7c-0.7,1.3-1.5,2.9-1.2,3.3c-0.5,0.5-1.2,1.7-0.8,0.1
							C8.4,84.9,8,86,7.6,87c-0.4,1-0.7,1.9-1,2.7c-0.6,1.7-1,3.2-1.2,5.1C5,95.2,5.4,93.5,5.1,94c-0.1,0.4-0.2,1.7-0.5,2.2
							c-0.3,0.5,0-0.8,0.1-1.6c-0.4,1.3-0.6,2.3-0.7,3.1c-0.1,0.8-0.1,1.4,0,1.9c0.1,0.9,0.5,1.2,0.8,1.5c-0.5,1.3-0.8,2.3-1,3.2
							c-0.1,0.9-0.1,1.8-0.1,2.8c-0.4,0.9-1,2.4-0.5-0.9c-0.1,0.5-0.3,1.4-0.5,2.5c-0.1,0.6-0.2,1.2-0.4,1.8c-0.1,0.7-0.2,1.3-0.3,2
							c-0.3,2.6-0.6,5.1-0.2,5.2c-0.2,0.6-0.2,2.6-0.2,3.1c-0.1,1-0.2,1.9-0.2,2.5c-0.1,0.7-0.1,1.3-0.1,1.8c0,1.1-0.1,2.3-0.1,4.3
							l0.1-1.1c0.7,1.6,0.2,3.4,0.3,6.7L1.6,135c-0.1,1.9,0,3.1,0,3.9c0,0.8,0.1,1.2,0.2,1.6c0.1,0.4,0.1,0.8,0.2,1.6
							c0,0.4,0,0.9,0,1.5c0,0.6,0.1,1.4,0.1,2.3l0.4-0.5c0.6,0.3,0.6,1.9,0.7,4.1c0.1,2.1,0.3,4.7,0.9,6.8l0-1.6
							c0.4,1.1,0.4,2.8,0.4,4.5c0,1.7-0.1,3.5,0.2,4.7c0.1,0.5-0.4-0.8-0.6-1.5c1.1,6.3,0.8,0.6,2.2,5.1c-0.1,0.9-1.2-0.8-0.3,2.2
							c0.1,0.8,1.1,2.9,2.2,5.3c0.6,1.2,1.2,2.5,1.7,3.7c0.3,0.6,0.5,1.2,0.7,1.8c0.2,0.6,0.4,1.1,0.6,1.7c-0.2-1-0.3-1.9,0.8,0
							c1.4,3,3,8.6,5.2,10.9c0.1,0.4,0.2,0.6,0.1,0.6c0.8,1,1.8,2.8,3,4.4c1.2,1.6,2.3,3,2.9,3.5c0,0.7,0.6,1.9,1.5,3.2
							c0.9,1.3,2.1,2.8,3.3,4.2c1.2,1.4,2.4,2.7,3.2,3.7c0.8,1,1.3,1.7,1,1.9c0.9,1,1.7,2,2.6,2.9l2.7,2.8l-0.3,0
							c1.7,1.9,3,2.9,4,3.8c1,0.8,1.8,1.3,2.6,1.7c0.8,0.8,0.1,0.4-0.1,0.4c2.7,2.5,4.1,3.9,5.7,5c1.5,1.1,3,2.1,5.7,3.5l0.2,0.8
							c1.4,0.8,8.3,6.7,15.1,9.5c-0.1,0-0.3,0-0.8-0.2c3.7,1.6,7.9,4,11.8,5.8c3.8,1.8,7.3,2.9,8.9,2.5c1.7,0.5,3.5,0.7,5.2,1.1
							c-6.6-2,1.2-0.5-1.4-1.5c1.3,0.3,2.9,0.9,3.8,1.3c0.9,0.4,1.1,0.6-0.5,0.3l-0.5-0.2c-1.4,0.7,8.2,2.3,7.9,2.8
							c6.7,1.3,13.3,2.1,19.9,2.6c1.7,0.1,3.3,0.1,4.9,0.2c1.6,0,3.3,0,4.9,0c0.8,0,1.6,0,2.4,0c0.8-0.1,1.6-0.1,2.4-0.2
							c1.6-0.1,3.2-0.2,4.8-0.4c-0.5-0.2-1-0.4-1.5-0.6c1.5-0.1,2.9-0.3,4.4-0.5c1.2,0,1.6,0.4-1.5,0.7c1.7,0.2,5.2-1,5.3-1.2
							c6.2-0.8-2.2,1.3-0.4,1l2.5-0.5l-0.6,0c1-0.3,1.5-0.6,2.3-0.8c0.4-0.1,0.8-0.2,1.4-0.4c0.6-0.2,1.3-0.3,2.2-0.5
							c2.4-0.4,1.3,0.2,2.2,0c0,0.1,0.3,0,1.4-0.3c1.8-0.5,3.6-1,5.4-1.5l-2.3,0.1c2.3-0.9,5.1-1.4,2.4-1.3c1.9-0.1,7-1.6,11.6-3.5
							c2.3-0.9,4.5-2,6.4-2.8c1.8-0.9,3.1-1.6,3.7-1.7c0.7-0.5,1.5-1,2.2-1.4c0.7-0.5,1.5-1,2.3-1.4c1.5-0.9,3.2-1.9,5-3
							c-1,0.5-1.8,0.3,1.3-1.6c-0.2,0.9,1.3,0.2,3.2-1c1.8-1.2,4.2-2.7,5.6-3.3c-1.2,0.6,0.8-1.1,2.6-2.6c1.9-1.6,3.4-3.2,1.6-2.1
							c2.4-1.9,0.5,0.3,2.4-1c5.1-5.2,11.9-10.9,17.3-18.1c-0.1-0.2-1.2,0.8-0.2-0.9c1.2-1,2.3-2.2,3.5-3.3c0.5-0.8,0.5-1.2,0.7-1.8
							c0.2-0.6,0.6-1.3,1.7-2.5c-0.4,0.3-0.9,0.8-0.3-0.3c5.2-7.1,9.2-15.3,12.4-23.7c3.2-8.5,5.6-17.2,7.8-25.9
							c-0.8,2.3-0.5,0.7-0.2-1.1c-0.3,1.2-0.4-0.1-0.7,0.1c0.5-2.4,1.1-4.9,1.6-7.3c-0.3-0.7-0.1-2.7,0-4.6c0.2-1.9,0.1-3.8-0.2-4.2
							l0.1,2.4c-0.3-1.6-0.8-0.5-1.3,0.9c-0.5,1.4-1.1,3.1-1.6,2.8c0.1,0.9,0.1,1.9,0,3c-0.2,1.1-0.5,2.3-0.8,3.5
							c-0.3,1.2-0.5,2.6-0.8,3.9c-0.3,1.4-0.4,2.8-0.4,4.2c-0.4,1.2-0.1-1.1-0.5-0.5c0.2,1.5-0.2,3.2-1.1,6.3l0-0.4
							c-0.4,2.2-1.1,4-1.6,5.8c-0.5,1.7-1.1,3.3-1.7,4.8c-0.6,1.6-1.2,3.2-2,4.9c-0.8,1.8-1.6,3.7-2.7,6l0.7-0.5
							c-1,2-1.3,2.3-1.8,3.2c-0.4,2.6,2.5-5.5,2.3-3.1c-0.5,0.6-1.2,1.7-1.9,3.1c-0.7,1.4-1.6,3.1-2.5,4.7c-0.8,1.7-1.8,3.2-2.6,4.5
							c-0.8,1.2-1.5,2.2-2,2.4c-1.8,2.8,1-0.5-0.8,2.3l-0.7,0.6l-0.1,0.9c-0.6,0.9-1.2,1.5-1.6,1.9c-0.4,0.4-0.7,0.5-0.9,0.5
							c0.3-0.4,0.8-1.3,1.1-1.7c-1,1.1-2.1,2.7-3.1,4.2c-1,1.5-1.9,2.7-2.2,3c0.7-0.8,1.4-1.6,2.1-2.4c-1.3,1.8-2.8,3.8-4.3,5.6
							c-1.6,1.8-3.2,3.8-5,5.6c-0.9,0.9-1.7,1.8-2.6,2.7c-0.9,0.9-1.8,1.7-2.6,2.6c-1.7,1.7-3.4,3.3-5,4.9l0.7-0.3
							c-0.6,0.6-1.1,1.1-1.6,1.5c-0.5,0.4-0.9,0.7-1.3,1c-0.7,0.6-1.3,1-1.9,1.4c-0.6,0.4-1.2,0.8-2,1.4c-0.8,0.6-1.9,1.3-3.4,2.4
							l0.2-0.2c-1.1,1.1-2.7,2.2-4.4,3.3c1.4-1.2-3.2,1.5-1.3-0.1c-3,2.1-3.8,2.6-4.2,3c-0.5,0.4-0.6,0.8-2.5,2.2l-1.2,0.2
							c-0.7,0.5-1,0.8-1.6,1.3c-0.6,0.4-1.4,0.9-3.1,1.7c2.6-1.5-2.4,0.5,0.5-1.3c-1.8,0.6-3.4,1.3-4.8,1.9
							c-1.4,0.6-2.6,1.1-3.6,1.6c-2.1,1-3.8,1.7-5.7,1.7c-1.5,1.1,0.1,0.7,1.9,0.1c1.8-0.5,3.7-1.4,2.8-0.9c0.8-0.1,0.2,0.3-0.9,0.9
							c-1.1,0.5-2.8,1.2-4,1.5c-1.2,0.4-2.3,0.4-3.8,0.5c-0.8,0.1-1.7,0.1-2.7,0.3c-0.5,0.1-1.1,0.2-1.7,0.3
							c-0.6,0.1-1.3,0.3-2.1,0.4c0.6-0.1,0.6-0.2,1.2-0.4c-1.2,0.1-2.2,0.5-3.4,0.8c-0.6,0.2-1.2,0.3-1.8,0.5
							c-0.6,0.1-1.3,0.2-2,0.2c-1.5,0.9-3.6,0.6-4,1.5l5.6-1.2c-1.6,0.4-3.1,0.9-4.8,1.5c-1.8,0.5-3.9,0.8-6.6,1
							c0.4-0.2,2-0.6,3-0.9c-1.6-0.1-3,0.6-4.6,0.5c0.2-0.4,1.9-0.6,4-0.9c1-0.1,2.2-0.3,3.3-0.5c1.1-0.2,2.1-0.5,2.9-0.8
							c-0.9,0-2.4,0.4-3.6,0.7c-1.2,0.2-2,0.3-1.2-0.2c-1.2,0.7-2.7,0.9-4.4,1c-1.7,0.1-3.7,0.1-5.8,0.7l0.2-0.5
							c-0.7,0.2-2,0.4-3.2,0.4l2.2-0.7c-3.4,0.6-6.5-0.2-9.8-0.1c3.4,0.1,3.8,0.2,3.7,0.4c-0.1,0.2-0.7,0.4,0.7,0.6
							c-8.5,0.5-4.8-1.2-14.2-1.7c1.3,0.1,4.7,0.7,2.7,0.7c-0.9-0.1-1.9-0.2-2.9-0.5c-0.9-0.2-1.8-0.4-2.3-0.6
							c-6.2-0.7,0.9,0.6-1.8,0.6c-2-0.8-3.1-0.2-5.8-0.5l0.1-0.5c-0.9-0.2-1.6-0.3-2.1-0.4c-0.5-0.1-0.9-0.2-1.2-0.2
							c-0.6-0.1-0.8,0-1.1,0.1c-0.4,0.2-0.8,0.3-3.9-0.6l2.8,0c-1.1-0.2-2.2-0.4-3.3-0.6c0.3-0.1,0.5-0.2,0.8-0.4
							c-1.8-0.3-3-0.5-4.1-0.9c-1.1-0.3-2.3-0.7-3.9-1.4c0.7,0.6-0.7,0.7-3.7-0.3c-1.9-1,1.3,0-2.9-1.5c1.1,0.1,2.2,0.2,3.9,1.2
							c0.2-0.1,1,0,1.3,0c-2.1-1-5.4-2.1-6.9-2.7c0.6,0.2,1.2,0.5,1.6,0.7c-1-0.3-2.1-0.6-3.1-0.9l-3.1-1c-0.9-0.6-0.1-0.4,0.7-0.2
							c-1.2-0.5-2.2-0.6-3.9-1.5c0.6-0.1,0.7-0.5,3.2,0.4c-1.9-0.7-3.8-1.5-5.7-2.3c-0.3-0.3-2.6-1.9-1.8-1.6
							c-1.4-1-3.3-1.8-5.3-2.8c-1.9-1.1-4.1-2.1-5.8-3.6c-0.2-0.1-0.7-0.3-1.5-0.8c-0.9-0.6-1.7-1.3-2.5-1.9c-0.8-0.7-1.6-1.3-2.4-2
							c-0.8-0.7-1.6-1.3-2.5-2c-0.9-0.7-1.8-1.4-2.8-2.2c-0.6-0.8-1.1-1.6-1.7-2.4c-3-2.6,2.2,3.3-2.7-1c-3.5-3.1-0.8-1.6-1.9-2.9
							c-0.9-0.7-2.2-1.7-3.6-2.9c-1.4-1.2-2.7-2.8-3.9-4.6C34.9,211.2,35.6,212.1,36.5,213.1z M11.7,171.5c0.2,0.4,0.5,1.1,0.8,1.7
							c0.3,0.6,0.5,1.2,0.5,1.6C12.1,174,12.1,173.1,11.7,171.5z M7.6,98.2c0,0.7-0.3,1.8-0.8,2.9C7,100.3,7.2,99.3,7.6,98.2z
							 M172.4,7.5c0,0-0.1,0-0.1,0C170.2,6.6,171,6.9,172.4,7.5z M176.6,9.2c0.4,0.1,0.4,0,0.3-0.1c-0.3,0-1.3-0.4-2.4-0.8
							C174.7,8.5,175.3,8.8,176.6,9.2z M161,255.9l-0.9,0.1C162,255.4,161.5,255.6,161,255.9z"/>
						<path class="st1" d="M6.4,106.6c-0.1,0.2-0.2,0.3-0.3,0.4C6.1,107.4,6.2,107.4,6.4,106.6z"/>
						<path class="st1" d="M59.2,232.9l0.1,0.1c0.1,0,0.1,0,0.2,0L59.2,232.9z"/>
						<path class="st1" d="M108.3,6.6c-0.9,0.1-1.4,0.1-1.8,0.1C106.5,6.8,106.9,6.8,108.3,6.6z"/>
						<path class="st1" d="M198.4,19.2c-0.8-0.5-1.7-0.9-2.6-1.4c1.2,0.7,1.6,1,2.2,1.5C198.1,19.1,197.7,18.7,198.4,19.2z"/>
						<path class="st1" d="M216.5,36.7c0.3,0.2,0.6,0.6,1,0.8l0.1-0.2C216.3,36,215.3,35.3,216.5,36.7z"/>
						<path class="st1" d="M199.9,22c0,0.2,0.4,0.6,1,1c0.3,0.2,0.7,0.4,1.1,0.7c0.4,0.2,0.8,0.5,1.2,0.8c-0.1-0.1-0.2-0.1-0.3-0.2
							c0.4-0.1,0.1-0.4-0.5-0.8C201.8,22.9,200.8,22.5,199.9,22z"/>
						<path class="st1" d="M203.5,24.6c0.5,0.3,1,0.7,1.5,1.1C205.4,25.6,204.4,25.2,203.5,24.6z"/>
						<path class="st1" d="M182,11.1c0.8,0.5,0.8-0.2,1.2,0.2c0.6,0-0.9-0.5-2-0.8c-0.5-0.1-1-0.2-0.9-0.1
							C180.3,10.4,180.7,10.7,182,11.1z"/>
						<polygon class="st1" points="200.5,24 200.2,23.1 199,22.9 						"/>
						<path class="st1" d="M187,15.7l2.8,1.6c0-0.1,0.4,0,0.8,0.2C188.9,16.6,187,15.6,187,15.7z"/>
						<path class="st1" d="M190.6,17.6c0.9,0.5,1.7,1,2.3,1.2C192.4,18.5,191.4,17.9,190.6,17.6z"/>
						<path class="st1" d="M196.7,21.7l-0.7-0.6l-1.9-1.2C194.9,20.6,195.9,21.1,196.7,21.7z"/>
						<path class="st1" d="M154.5,4.6l-3.5-0.5c-0.4,0.1,0.5,0.4,1.8,0.5C153.7,4.7,155,4.9,154.5,4.6z"/>
						<path class="st1" d="M164.4,8.4c-0.9-0.4-0.9-0.5-1.4-0.8l-0.3,0.6L164.4,8.4z"/>
						<path class="st1" d="M154.6,6.2c-0.4,0.1-5-0.4-0.7,0.3C154.3,6.4,157.7,6.9,154.6,6.2z"/>
						<polygon class="st1" points="102.7,5.9 103.6,5.7 103.3,4.7 						"/>
						<path class="st1" d="M61.7,25.7c3.5-2,0.5-1.1,3.7-2.8c0.7-0.7-2.7,1.4-2,0.7C61.6,25.2,60.4,25.8,61.7,25.7z"/>
						<path class="st1" d="M63.5,23.7c0.3-0.2,0.6-0.5,1-0.8C63.9,23.3,63.7,23.5,63.5,23.7z"/>
						<path class="st1" d="M259.7,137.6c0.2-0.9,0.2-1.8,0.3-2.7l-0.4,1.7C259.7,137,259.7,137.3,259.7,137.6z"/>
						<path class="st1" d="M259.1,132.4l0.7-0.6l-0.5-1.6C259.3,130.8,259.3,132,259.1,132.4z"/>
						<path class="st1" d="M10.8,164.3l-0.2-0.1c-0.1,0.4,0.1,1,0.4,2.2L10.8,164.3z"/>
						<polygon class="st1" points="24.6,196.4 24.3,195.9 24.4,197.1 						"/>
						<path class="st1" d="M43.6,218.8c-0.9-0.8-1.9-1.8-2.7-2.6C42.7,217.9,43.4,219.5,43.6,218.8z"/>
					</g>
				</g>
			</g>
		</g>
	</g>
	<circle class="st2" cx="130" cy="130" r="110"/>
	<circle class="st0" cx="580.9" cy="17.4" r="41.6"/>
	<circle class="st3" cx="130" cy="130" r="98"/>
</g>
<g id="bestik">
	<path class="st4" d="M125.4,111.7c0,0-17.6-3.1-16.4-28.2s19.2-23.9,19.2-23.9s20.9-0.9,21.7,25.2c0.9,26.1-16,26.8-16,26.8
		l3.6,83.6c0,0-5.9,14.6-16.9,0.7L125.4,111.7z"/>
	<path class="st4" d="M170.9,122.3c0,0-6.3-1.8-6.3-8.6c0-6.8,0.5-54.7,14.2-61.5c0,0,1-3.5,1.3,1.5s3.5,143,3.5,143
		s-6.8,14.4-14.2,0L170.9,122.3z"/>
	<path class="st4" d="M437.5,114.5c0,0-4.9-1.4-4.9-6.6s0.4-42,10.9-47.3c0,0,0.8-2.7,1,1.2c0.2,3.9,2.7,109.9,2.7,109.9
		s-5.3,11.1-10.9,0L437.5,114.5z"/>
	<path class="st4" d="M79.5,115.6c0,0-11.4-4.3-10.9-14.5c0.5-10.2,4.8-39.9,4.8-39.9l3.1,0.1l0.1,38.2l1.3,0.1l0.9-37.8l3.7,0.1
		l0.3,38.5h1.3l0.4-38.7l3.7,0.1l0.4,38.5l1.7,0.1l0.1-38.6l2.7,0.1c0,0,6.2,35.4,4.4,40.5c0,0-0.1,8.5-9.8,12.4l3.2,79
		c0,0-7.6,13.2-14.7-0.5L79.5,115.6z"/>
	<path class="st4" d="M325.2,115.9c0,0-11.6-4.4-11.1-14.7c0.5-10.3,4.9-40.4,4.9-40.4l3.1,0.1l0.1,38.7l1.3,0.1l0.9-38.3l3.8,0.1
		l0.3,39h1.4l0.4-39.2l3.7,0.1l0.5,39l1.7,0.1l0.1-39.1l2.8,0.1c0,0,6.3,35.8,4.4,41.1c0,0-0.1,8.6-10,12.5l3.3,80
		c0,0-7.7,13.4-14.9-0.5L325.2,115.9z"/>
	<rect x="15.9" y="136.6" class="st4" width="224.6" height="43.9"/>
	<text transform="matrix(1 0 0 1 86.0801 174.8818)" class="st5 st6">BABUSHKA</text>
	<text transform="matrix(1 0 0 1 110.694 150.1109)" class="st7 st8">BISTRO </text>
	<line class="st9" x1="69.6" y1="154.1" x2="187.9" y2="154.1"/>
</g>
</svg>
